<svg xmlns="http://www.w3.org/2000/svg" xmlns:xlink="http://www.w3.org/1999/xlink" width="600" zoomAndPan="magnify" viewBox="0 0 450 299.999988" height="400" preserveAspectRatio="xMidYMid meet" version="1.0"><defs><g/><clipPath id="590f221570"><path d="M 276 74 L 441 74 L 441 261 L 276 261 Z M 276 74 " clip-rule="nonzero"/></clipPath><clipPath id="b679d29c77"><path d="M 432.867188 265.347656 L 218.65625 254.242188 L 229.757812 40.03125 L 443.96875 51.132812 Z M 432.867188 265.347656 " clip-rule="nonzero"/></clipPath><clipPath id="2a4befc11c"><path d="M 230.046875 40.351562 L 444.257812 51.453125 L 433.15625 265.667969 L 218.941406 254.5625 Z M 230.046875 40.351562 " clip-rule="nonzero"/></clipPath><clipPath id="22d8ad5209"><path d="M 282.285156 68.441406 L 442.945312 76.769531 L 433.105469 266.640625 L 272.445312 258.3125 Z M 282.285156 68.441406 " clip-rule="nonzero"/></clipPath><clipPath id="1930de31a6"><path d="M 282.285156 68.441406 L 442.945312 76.769531 L 433.214844 264.492188 L 272.558594 256.164062 Z M 282.285156 68.441406 " clip-rule="nonzero"/></clipPath><clipPath id="f356074dff"><path d="M 222 42 L 336 42 L 336 212 L 222 212 Z M 222 42 " clip-rule="nonzero"/></clipPath><clipPath id="51b3719c3a"><path d="M 432.867188 265.347656 L 218.65625 254.242188 L 229.757812 40.03125 L 443.96875 51.132812 Z M 432.867188 265.347656 " clip-rule="nonzero"/></clipPath><clipPath id="dd97923bc2"><path d="M 230.046875 40.351562 L 444.257812 51.453125 L 433.15625 265.667969 L 218.941406 254.5625 Z M 230.046875 40.351562 " clip-rule="nonzero"/></clipPath><clipPath id="16afd45cc0"><path d="M 117 41 L 254 41 L 254 222 L 117 222 Z M 117 41 " clip-rule="nonzero"/></clipPath><clipPath id="b7397ddb8a"><path d="M 6.320312 135.035156 L 162.070312 -12.453125 L 309.558594 143.296875 L 153.808594 290.785156 Z M 6.320312 135.035156 " clip-rule="nonzero"/></clipPath><clipPath id="60fefde1da"><path d="M 6.320312 135.035156 L 162.070312 -12.453125 L 309.558594 143.296875 L 153.808594 290.785156 Z M 6.320312 135.035156 " clip-rule="nonzero"/></clipPath><clipPath id="452137c56f"><path d="M 62.6875 116.570312 L 179.5 5.953125 L 310.226562 144.003906 L 193.414062 254.621094 Z M 62.6875 116.570312 " clip-rule="nonzero"/></clipPath><clipPath id="1ae344db28"><path d="M 62.6875 116.570312 L 179.5 5.953125 L 308.746094 142.441406 L 191.9375 253.058594 Z M 62.6875 116.570312 " clip-rule="nonzero"/></clipPath><clipPath id="a4ae02ce83"><path d="M 13 68 L 193 68 L 193 250 L 13 250 Z M 13 68 " clip-rule="nonzero"/></clipPath><clipPath id="2212484037"><path d="M 6.320312 135.035156 L 162.070312 -12.453125 L 309.558594 143.296875 L 153.808594 290.785156 Z M 6.320312 135.035156 " clip-rule="nonzero"/></clipPath><clipPath id="53282b6c8d"><path d="M 6.320312 135.035156 L 162.070312 -12.453125 L 309.558594 143.296875 L 153.808594 290.785156 Z M 6.320312 135.035156 " clip-rule="nonzero"/></clipPath><clipPath id="71836e06cb"><path d="M 76 132 L 110 132 L 110 165 L 76 165 Z M 76 132 " clip-rule="nonzero"/></clipPath><clipPath id="ca0c56fda8"><path d="M 60.070312 151.558594 L 98.46875 115.757812 L 134.269531 154.160156 L 95.871094 189.960938 Z M 60.070312 151.558594 " clip-rule="nonzero"/></clipPath><clipPath id="19657c37e3"><path d="M 60.070312 151.558594 L 98.46875 115.757812 L 134.269531 154.160156 L 95.871094 189.960938 Z M 60.070312 151.558594 " clip-rule="nonzero"/></clipPath><clipPath id="be1565c271"><path d="M 60.070312 151.558594 L 98.46875 115.757812 L 134.269531 154.160156 L 95.871094 189.960938 Z M 60.070312 151.558594 " clip-rule="nonzero"/></clipPath><clipPath id="e31e9db358"><path d="M 84 140 L 117 140 L 117 173 L 84 173 Z M 84 140 " clip-rule="nonzero"/></clipPath><clipPath id="66db97ae89"><path d="M 60.070312 151.558594 L 98.46875 115.757812 L 134.269531 154.160156 L 95.871094 189.960938 Z M 60.070312 151.558594 " clip-rule="nonzero"/></clipPath><clipPath id="30354b96bd"><path d="M 60.070312 151.558594 L 98.46875 115.757812 L 134.269531 154.160156 L 95.871094 189.960938 Z M 60.070312 151.558594 " clip-rule="nonzero"/></clipPath><clipPath id="a0beddc175"><path d="M 60.070312 151.558594 L 98.46875 115.757812 L 134.269531 154.160156 L 95.871094 189.960938 Z M 60.070312 151.558594 " clip-rule="nonzero"/></clipPath><clipPath id="6ee955ea04"><path d="M 88 145 L 114 145 L 114 169 L 88 169 Z M 88 145 " clip-rule="nonzero"/></clipPath><clipPath id="935176e65e"><path d="M 60.070312 151.558594 L 98.46875 115.757812 L 134.269531 154.160156 L 95.871094 189.960938 Z M 60.070312 151.558594 " clip-rule="nonzero"/></clipPath><clipPath id="e9ed6c93ff"><path d="M 60.070312 151.558594 L 98.46875 115.757812 L 134.269531 154.160156 L 95.871094 189.960938 Z M 60.070312 151.558594 " clip-rule="nonzero"/></clipPath><clipPath id="d46ca09b54"><path d="M 60.070312 151.558594 L 98.46875 115.757812 L 134.269531 154.160156 L 95.871094 189.960938 Z M 60.070312 151.558594 " clip-rule="nonzero"/></clipPath><clipPath id="cc12d62d00"><path d="M 82 137 L 94 137 L 94 149 L 82 149 Z M 82 137 " clip-rule="nonzero"/></clipPath><clipPath id="a3b8376352"><path d="M 60.070312 151.558594 L 98.46875 115.757812 L 134.269531 154.160156 L 95.871094 189.960938 Z M 60.070312 151.558594 " clip-rule="nonzero"/></clipPath><clipPath id="85a49424d9"><path d="M 60.070312 151.558594 L 98.46875 115.757812 L 134.269531 154.160156 L 95.871094 189.960938 Z M 60.070312 151.558594 " clip-rule="nonzero"/></clipPath><clipPath id="a03dba5782"><path d="M 60.070312 151.558594 L 98.46875 115.757812 L 134.269531 154.160156 L 95.871094 189.960938 Z M 60.070312 151.558594 " clip-rule="nonzero"/></clipPath><clipPath id="190b639c12"><path d="M 83 138 L 92 138 L 92 147 L 83 147 Z M 83 138 " clip-rule="nonzero"/></clipPath><clipPath id="f8a54d3c5e"><path d="M 60.070312 151.558594 L 98.46875 115.757812 L 134.269531 154.160156 L 95.871094 189.960938 Z M 60.070312 151.558594 " clip-rule="nonzero"/></clipPath><clipPath id="5f4d4d85be"><path d="M 60.070312 151.558594 L 98.46875 115.757812 L 134.269531 154.160156 L 95.871094 189.960938 Z M 60.070312 151.558594 " clip-rule="nonzero"/></clipPath><clipPath id="f1658fad3a"><path d="M 60.070312 151.558594 L 98.46875 115.757812 L 134.269531 154.160156 L 95.871094 189.960938 Z M 60.070312 151.558594 " clip-rule="nonzero"/></clipPath><clipPath id="cfc9521471"><path d="M 84 140 L 117 140 L 117 173 L 84 173 Z M 84 140 " clip-rule="nonzero"/></clipPath><clipPath id="28f1938d5a"><path d="M 60.070312 151.558594 L 98.46875 115.757812 L 134.269531 154.160156 L 95.871094 189.960938 Z M 60.070312 151.558594 " clip-rule="nonzero"/></clipPath><clipPath id="09276c3d2f"><path d="M 60.070312 151.558594 L 98.46875 115.757812 L 134.269531 154.160156 L 95.871094 189.960938 Z M 60.070312 151.558594 " clip-rule="nonzero"/></clipPath><clipPath id="7cefec22d6"><path d="M 60.070312 151.558594 L 98.46875 115.757812 L 134.269531 154.160156 L 95.871094 189.960938 Z M 60.070312 151.558594 " clip-rule="nonzero"/></clipPath><clipPath id="f784f91b9f"><path d="M 92 148 L 106 148 L 106 162 L 92 162 Z M 92 148 " clip-rule="nonzero"/></clipPath><clipPath id="528c0d77e7"><path d="M 60.070312 151.558594 L 98.46875 115.757812 L 134.269531 154.160156 L 95.871094 189.960938 Z M 60.070312 151.558594 " clip-rule="nonzero"/></clipPath><clipPath id="0c703b7806"><path d="M 60.070312 151.558594 L 98.46875 115.757812 L 134.269531 154.160156 L 95.871094 189.960938 Z M 60.070312 151.558594 " clip-rule="nonzero"/></clipPath><clipPath id="9bfef09e52"><path d="M 60.070312 151.558594 L 98.46875 115.757812 L 134.269531 154.160156 L 95.871094 189.960938 Z M 60.070312 151.558594 " clip-rule="nonzero"/></clipPath><clipPath id="0102996668"><path d="M 93 149 L 105 149 L 105 161 L 93 161 Z M 93 149 " clip-rule="nonzero"/></clipPath><clipPath id="0e385aa8aa"><path d="M 60.070312 151.558594 L 98.46875 115.757812 L 134.269531 154.160156 L 95.871094 189.960938 Z M 60.070312 151.558594 " clip-rule="nonzero"/></clipPath><clipPath id="27814dc102"><path d="M 60.070312 151.558594 L 98.46875 115.757812 L 134.269531 154.160156 L 95.871094 189.960938 Z M 60.070312 151.558594 " clip-rule="nonzero"/></clipPath><clipPath id="185769d8e8"><path d="M 60.070312 151.558594 L 98.46875 115.757812 L 134.269531 154.160156 L 95.871094 189.960938 Z M 60.070312 151.558594 " clip-rule="nonzero"/></clipPath><clipPath id="2ba47b3d2e"><path d="M 88 144 L 114 144 L 114 170 L 88 170 Z M 88 144 " clip-rule="nonzero"/></clipPath><clipPath id="70e6c68206"><path d="M 60.070312 151.558594 L 98.46875 115.757812 L 134.269531 154.160156 L 95.871094 189.960938 Z M 60.070312 151.558594 " clip-rule="nonzero"/></clipPath><clipPath id="a3f315b3f2"><path d="M 60.070312 151.558594 L 98.46875 115.757812 L 134.269531 154.160156 L 95.871094 189.960938 Z M 60.070312 151.558594 " clip-rule="nonzero"/></clipPath><clipPath id="d42618d9a5"><path d="M 60.070312 151.558594 L 98.46875 115.757812 L 134.269531 154.160156 L 95.871094 189.960938 Z M 60.070312 151.558594 " clip-rule="nonzero"/></clipPath><clipPath id="818eb82367"><path d="M 97 153 L 110 153 L 110 166 L 97 166 Z M 97 153 " clip-rule="nonzero"/></clipPath><clipPath id="cbabde4ac1"><path d="M 60.070312 151.558594 L 98.46875 115.757812 L 134.269531 154.160156 L 95.871094 189.960938 Z M 60.070312 151.558594 " clip-rule="nonzero"/></clipPath><clipPath id="a7beb8562c"><path d="M 60.070312 151.558594 L 98.46875 115.757812 L 134.269531 154.160156 L 95.871094 189.960938 Z M 60.070312 151.558594 " clip-rule="nonzero"/></clipPath><clipPath id="668fc90c97"><path d="M 60.070312 151.558594 L 98.46875 115.757812 L 134.269531 154.160156 L 95.871094 189.960938 Z M 60.070312 151.558594 " clip-rule="nonzero"/></clipPath><clipPath id="0cddb86ac7"><path d="M 85 141 L 114 141 L 114 169 L 85 169 Z M 85 141 " clip-rule="nonzero"/></clipPath><clipPath id="8542b8c235"><path d="M 60.070312 151.558594 L 98.46875 115.757812 L 134.269531 154.160156 L 95.871094 189.960938 Z M 60.070312 151.558594 " clip-rule="nonzero"/></clipPath><clipPath id="749d3c730f"><path d="M 60.070312 151.558594 L 98.46875 115.757812 L 134.269531 154.160156 L 95.871094 189.960938 Z M 60.070312 151.558594 " clip-rule="nonzero"/></clipPath><clipPath id="5fd56b6470"><path d="M 60.070312 151.558594 L 98.46875 115.757812 L 134.269531 154.160156 L 95.871094 189.960938 Z M 60.070312 151.558594 " clip-rule="nonzero"/></clipPath><clipPath id="248f056232"><path d="M 82 138 L 107 138 L 107 162 L 82 162 Z M 82 138 " clip-rule="nonzero"/></clipPath><clipPath id="2ec6e1f94b"><path d="M 60.070312 151.558594 L 98.46875 115.757812 L 134.269531 154.160156 L 95.871094 189.960938 Z M 60.070312 151.558594 " clip-rule="nonzero"/></clipPath><clipPath id="92f6569810"><path d="M 60.070312 151.558594 L 98.46875 115.757812 L 134.269531 154.160156 L 95.871094 189.960938 Z M 60.070312 151.558594 " clip-rule="nonzero"/></clipPath><clipPath id="97277dd537"><path d="M 60.070312 151.558594 L 98.46875 115.757812 L 134.269531 154.160156 L 95.871094 189.960938 Z M 60.070312 151.558594 " clip-rule="nonzero"/></clipPath><clipPath id="e06dc7c678"><path d="M 168 120 L 210 120 L 210 144 L 168 144 Z M 168 120 " clip-rule="nonzero"/></clipPath><clipPath id="75413b503a"><path d="M 144.925781 87.980469 L 205.328125 72.9375 L 220.371094 133.339844 L 159.96875 148.382812 Z M 144.925781 87.980469 " clip-rule="nonzero"/></clipPath><clipPath id="0644a710c3"><path d="M 144.925781 87.980469 L 205.328125 72.9375 L 220.371094 133.339844 L 159.96875 148.382812 Z M 144.925781 87.980469 " clip-rule="nonzero"/></clipPath><clipPath id="a05fb7cd5f"><path d="M 144.925781 87.980469 L 205.328125 72.9375 L 220.371094 133.339844 L 159.96875 148.382812 Z M 144.925781 87.980469 " clip-rule="nonzero"/></clipPath><clipPath id="844e67b572"><path d="M 176 119 L 184 119 L 184 134 L 176 134 Z M 176 119 " clip-rule="nonzero"/></clipPath><clipPath id="171d33a6a8"><path d="M 144.925781 87.980469 L 205.328125 72.9375 L 220.371094 133.339844 L 159.96875 148.382812 Z M 144.925781 87.980469 " clip-rule="nonzero"/></clipPath><clipPath id="0fd3e11225"><path d="M 144.925781 87.980469 L 205.328125 72.9375 L 220.371094 133.339844 L 159.96875 148.382812 Z M 144.925781 87.980469 " clip-rule="nonzero"/></clipPath><clipPath id="a1fcfbce9e"><path d="M 144.925781 87.980469 L 205.328125 72.9375 L 220.371094 133.339844 L 159.96875 148.382812 Z M 144.925781 87.980469 " clip-rule="nonzero"/></clipPath><clipPath id="613208384e"><path d="M 189 116 L 200 116 L 200 128 L 189 128 Z M 189 116 " clip-rule="nonzero"/></clipPath><clipPath id="2bd7cf197f"><path d="M 144.925781 87.980469 L 205.328125 72.9375 L 220.371094 133.339844 L 159.96875 148.382812 Z M 144.925781 87.980469 " clip-rule="nonzero"/></clipPath><clipPath id="f5183e5cfd"><path d="M 144.925781 87.980469 L 205.328125 72.9375 L 220.371094 133.339844 L 159.96875 148.382812 Z M 144.925781 87.980469 " clip-rule="nonzero"/></clipPath><clipPath id="92f2f6f81a"><path d="M 144.925781 87.980469 L 205.328125 72.9375 L 220.371094 133.339844 L 159.96875 148.382812 Z M 144.925781 87.980469 " clip-rule="nonzero"/></clipPath><clipPath id="3cc981ad4e"><path d="M 185 77 L 193 77 L 193 94 L 185 94 Z M 185 77 " clip-rule="nonzero"/></clipPath><clipPath id="a4eccf4fb9"><path d="M 144.925781 87.980469 L 205.328125 72.9375 L 220.371094 133.339844 L 159.96875 148.382812 Z M 144.925781 87.980469 " clip-rule="nonzero"/></clipPath><clipPath id="43c4b6d74a"><path d="M 144.925781 87.980469 L 205.328125 72.9375 L 220.371094 133.339844 L 159.96875 148.382812 Z M 144.925781 87.980469 " clip-rule="nonzero"/></clipPath><clipPath id="c630fa0b6c"><path d="M 144.925781 87.980469 L 205.328125 72.9375 L 220.371094 133.339844 L 159.96875 148.382812 Z M 144.925781 87.980469 " clip-rule="nonzero"/></clipPath><clipPath id="87dde5549d"><path d="M 177 112 L 192 112 L 192 134 L 177 134 Z M 177 112 " clip-rule="nonzero"/></clipPath><clipPath id="efdcc45174"><path d="M 144.925781 87.980469 L 205.328125 72.9375 L 220.371094 133.339844 L 159.96875 148.382812 Z M 144.925781 87.980469 " clip-rule="nonzero"/></clipPath><clipPath id="22fc4a4840"><path d="M 144.925781 87.980469 L 205.328125 72.9375 L 220.371094 133.339844 L 159.96875 148.382812 Z M 144.925781 87.980469 " clip-rule="nonzero"/></clipPath><clipPath id="06d87649a8"><path d="M 144.925781 87.980469 L 205.328125 72.9375 L 220.371094 133.339844 L 159.96875 148.382812 Z M 144.925781 87.980469 " clip-rule="nonzero"/></clipPath><clipPath id="343dd3b99e"><path d="M 190 101 L 196 101 L 196 107 L 190 107 Z M 190 101 " clip-rule="nonzero"/></clipPath><clipPath id="4d517a4880"><path d="M 144.925781 87.980469 L 205.328125 72.9375 L 220.371094 133.339844 L 159.96875 148.382812 Z M 144.925781 87.980469 " clip-rule="nonzero"/></clipPath><clipPath id="98f52983fb"><path d="M 144.925781 87.980469 L 205.328125 72.9375 L 220.371094 133.339844 L 159.96875 148.382812 Z M 144.925781 87.980469 " clip-rule="nonzero"/></clipPath><clipPath id="34ab50bc3a"><path d="M 144.925781 87.980469 L 205.328125 72.9375 L 220.371094 133.339844 L 159.96875 148.382812 Z M 144.925781 87.980469 " clip-rule="nonzero"/></clipPath><clipPath id="54ba1f70e9"><path d="M 167 107 L 173 107 L 173 113 L 167 113 Z M 167 107 " clip-rule="nonzero"/></clipPath><clipPath id="9ebafe7349"><path d="M 144.925781 87.980469 L 205.328125 72.9375 L 220.371094 133.339844 L 159.96875 148.382812 Z M 144.925781 87.980469 " clip-rule="nonzero"/></clipPath><clipPath id="2cb3edf8fd"><path d="M 144.925781 87.980469 L 205.328125 72.9375 L 220.371094 133.339844 L 159.96875 148.382812 Z M 144.925781 87.980469 " clip-rule="nonzero"/></clipPath><clipPath id="2deaa4ce73"><path d="M 144.925781 87.980469 L 205.328125 72.9375 L 220.371094 133.339844 L 159.96875 148.382812 Z M 144.925781 87.980469 " clip-rule="nonzero"/></clipPath><clipPath id="5ccb333b9d"><path d="M 168 92 L 194 92 L 194 120 L 168 120 Z M 168 92 " clip-rule="nonzero"/></clipPath><clipPath id="17829a82e1"><path d="M 144.925781 87.980469 L 205.328125 72.9375 L 220.371094 133.339844 L 159.96875 148.382812 Z M 144.925781 87.980469 " clip-rule="nonzero"/></clipPath><clipPath id="7ef202a73b"><path d="M 144.925781 87.980469 L 205.328125 72.9375 L 220.371094 133.339844 L 159.96875 148.382812 Z M 144.925781 87.980469 " clip-rule="nonzero"/></clipPath><clipPath id="fdcbae005d"><path d="M 144.925781 87.980469 L 205.328125 72.9375 L 220.371094 133.339844 L 159.96875 148.382812 Z M 144.925781 87.980469 " clip-rule="nonzero"/></clipPath><clipPath id="cd69d97d14"><path d="M 167 87 L 194 87 L 194 110 L 167 110 Z M 167 87 " clip-rule="nonzero"/></clipPath><clipPath id="29efc49c2a"><path d="M 144.925781 87.980469 L 205.328125 72.9375 L 220.371094 133.339844 L 159.96875 148.382812 Z M 144.925781 87.980469 " clip-rule="nonzero"/></clipPath><clipPath id="8780f07bdf"><path d="M 144.925781 87.980469 L 205.328125 72.9375 L 220.371094 133.339844 L 159.96875 148.382812 Z M 144.925781 87.980469 " clip-rule="nonzero"/></clipPath><clipPath id="259fa8dbea"><path d="M 144.925781 87.980469 L 205.328125 72.9375 L 220.371094 133.339844 L 159.96875 148.382812 Z M 144.925781 87.980469 " clip-rule="nonzero"/></clipPath><clipPath id="425229d242"><path d="M 185 104 L 189 104 L 189 107 L 185 107 Z M 185 104 " clip-rule="nonzero"/></clipPath><clipPath id="7502dd0374"><path d="M 144.925781 87.980469 L 205.328125 72.9375 L 220.371094 133.339844 L 159.96875 148.382812 Z M 144.925781 87.980469 " clip-rule="nonzero"/></clipPath><clipPath id="e450eb94f9"><path d="M 144.925781 87.980469 L 205.328125 72.9375 L 220.371094 133.339844 L 159.96875 148.382812 Z M 144.925781 87.980469 " clip-rule="nonzero"/></clipPath><clipPath id="dba3177acd"><path d="M 144.925781 87.980469 L 205.328125 72.9375 L 220.371094 133.339844 L 159.96875 148.382812 Z M 144.925781 87.980469 " clip-rule="nonzero"/></clipPath><clipPath id="1e0948743b"><path d="M 175 106 L 178 106 L 178 110 L 175 110 Z M 175 106 " clip-rule="nonzero"/></clipPath><clipPath id="3b6725df40"><path d="M 144.925781 87.980469 L 205.328125 72.9375 L 220.371094 133.339844 L 159.96875 148.382812 Z M 144.925781 87.980469 " clip-rule="nonzero"/></clipPath><clipPath id="6e6b5eea00"><path d="M 144.925781 87.980469 L 205.328125 72.9375 L 220.371094 133.339844 L 159.96875 148.382812 Z M 144.925781 87.980469 " clip-rule="nonzero"/></clipPath><clipPath id="6160572430"><path d="M 144.925781 87.980469 L 205.328125 72.9375 L 220.371094 133.339844 L 159.96875 148.382812 Z M 144.925781 87.980469 " clip-rule="nonzero"/></clipPath><clipPath id="28e8160081"><path d="M 167 84 L 192 84 L 192 100 L 167 100 Z M 167 84 " clip-rule="nonzero"/></clipPath><clipPath id="6853de7d61"><path d="M 144.925781 87.980469 L 205.328125 72.9375 L 220.371094 133.339844 L 159.96875 148.382812 Z M 144.925781 87.980469 " clip-rule="nonzero"/></clipPath><clipPath id="3bffe30fa2"><path d="M 144.925781 87.980469 L 205.328125 72.9375 L 220.371094 133.339844 L 159.96875 148.382812 Z M 144.925781 87.980469 " clip-rule="nonzero"/></clipPath><clipPath id="3c5ada5ee3"><path d="M 144.925781 87.980469 L 205.328125 72.9375 L 220.371094 133.339844 L 159.96875 148.382812 Z M 144.925781 87.980469 " clip-rule="nonzero"/></clipPath></defs><g clip-path="url(#590f221570)"><g clip-path="url(#b679d29c77)"><g clip-path="url(#2a4befc11c)"><g clip-path="url(#22d8ad5209)"><g clip-path="url(#1930de31a6)"><path fill="#6141ac" d="M 343.441406 257.855469 C 346.820312 260.011719 350.804688 260.753906 354.71875 259.90625 C 358.632812 259.0625 361.976562 256.738281 364.152344 253.378906 L 437.707031 139.253906 C 439.882812 135.875 440.605469 131.871094 439.777344 127.957031 C 438.914062 124.042969 436.609375 120.699219 433.230469 118.523438 L 368.886719 77.070312 C 365.53125 74.894531 361.507812 74.152344 357.609375 75.015625 C 353.695312 75.863281 350.351562 78.167969 348.175781 81.542969 L 338.515625 96.527344 L 333.273438 197.664062 C 332.710938 208.503906 323.449219 216.871094 312.605469 216.308594 L 276.796875 214.453125 C 277.523438 215.15625 278.25 215.84375 279.101562 216.382812 L 343.441406 257.855469 " fill-opacity="1" fill-rule="nonzero"/></g></g></g></g></g><g clip-path="url(#f356074dff)"><g clip-path="url(#51b3719c3a)"><g clip-path="url(#dd97923bc2)"><path fill="#6141ac" d="M 222.191406 191.90625 C 221.761719 200.160156 228.128906 207.21875 236.382812 207.648438 L 312.832031 211.609375 C 321.085938 212.039062 328.148438 205.671875 328.574219 197.417969 L 335.601562 61.804688 C 336.03125 53.570312 329.664062 46.507812 321.410156 46.082031 L 244.960938 42.121094 C 236.707031 41.691406 229.648438 48.058594 229.21875 56.292969 L 222.191406 191.90625 " fill-opacity="1" fill-rule="nonzero"/></g></g></g><g clip-path="url(#16afd45cc0)"><g clip-path="url(#b7397ddb8a)"><g clip-path="url(#60fefde1da)"><g clip-path="url(#452137c56f)"><g clip-path="url(#1ae344db28)"><path fill="#8c52ff" d="M 242.039062 202.886719 C 245.929688 201.925781 249.214844 199.550781 251.300781 196.132812 C 253.390625 192.714844 254.011719 188.691406 253.078125 184.796875 L 221.140625 52.835938 C 220.195312 48.929688 217.792969 45.644531 214.386719 43.542969 C 210.957031 41.472656 206.945312 40.835938 203.039062 41.78125 L 128.648438 59.796875 C 124.757812 60.730469 121.445312 63.132812 119.386719 66.550781 C 117.300781 69.96875 116.664062 73.980469 117.609375 77.882812 L 121.796875 95.214844 L 191.429688 168.746094 C 198.894531 176.628906 198.566406 189.105469 190.6875 196.570312 L 164.648438 221.226562 C 165.660156 221.183594 166.660156 221.132812 167.636719 220.886719 L 242.039062 202.886719 " fill-opacity="1" fill-rule="nonzero"/></g></g></g></g></g><g clip-path="url(#a4ae02ce83)"><g clip-path="url(#2212484037)"><g clip-path="url(#53282b6c8d)"><path fill="#8c52ff" d="M 110.667969 245.226562 C 116.351562 251.226562 125.851562 251.488281 131.855469 245.804688 L 187.4375 193.167969 C 193.441406 187.484375 193.699219 177.980469 188.015625 171.980469 L 94.644531 73.378906 C 88.976562 67.390625 79.472656 67.132812 73.472656 72.816406 L 17.886719 125.453125 C 11.886719 131.136719 11.625 140.640625 17.296875 146.625 L 110.667969 245.226562 " fill-opacity="1" fill-rule="nonzero"/></g></g></g><g clip-path="url(#71836e06cb)"><g clip-path="url(#ca0c56fda8)"><g clip-path="url(#19657c37e3)"><g clip-path="url(#be1565c271)"><path fill="#f44336" d="M 87.460938 164.902344 C 87.347656 164.886719 83.230469 165.175781 80.585938 162.339844 C 77.460938 158.988281 73.355469 145.15625 82.328125 136.789062 C 91.203125 128.515625 104.683594 133.652344 107.785156 136.980469 C 110.621094 140.019531 109.855469 143.75 109.863281 144.019531 L 108.261719 145.511719 C 108.261719 145.511719 102.101562 136.296875 91.203125 146.460938 C 80.304688 156.621094 89.0625 163.410156 89.0625 163.410156 Z M 87.460938 164.902344 " fill-opacity="1" fill-rule="nonzero"/></g></g></g></g><g clip-path="url(#e31e9db358)"><g clip-path="url(#66db97ae89)"><g clip-path="url(#30354b96bd)"><g clip-path="url(#a0beddc175)"><path fill="#ffa726" d="M 95.3125 171.042969 C 95.242188 171.109375 95.167969 171.175781 95.089844 171.242188 L 94.972656 171.351562 C 92.949219 173.238281 88.300781 172.21875 85.75 169.480469 C 83.792969 167.382812 83.972656 165.15625 85.167969 164.042969 C 86.109375 163.164062 88.039062 162.226562 90.367188 162.484375 L 90.820312 162.535156 L 96.363281 169.679688 L 95.945312 170.335938 C 95.804688 170.5625 95.585938 170.789062 95.3125 171.042969 Z M 114.6875 152.863281 L 114.003906 153.230469 L 107.269531 147.203125 L 107.25 146.75 C 107.15625 144.410156 108.222656 142.550781 109.167969 141.671875 C 110.359375 140.558594 112.59375 140.53125 114.550781 142.632812 C 117.101562 145.367188 117.792969 150.078125 115.773438 151.960938 L 115.65625 152.074219 C 115.582031 152.144531 115.507812 152.210938 115.4375 152.277344 C 115.164062 152.53125 114.925781 152.734375 114.6875 152.863281 Z M 114.6875 152.863281 " fill-opacity="1" fill-rule="nonzero"/></g></g></g></g><g clip-path="url(#6ee955ea04)"><g clip-path="url(#935176e65e)"><g clip-path="url(#e9ed6c93ff)"><g clip-path="url(#d46ca09b54)"><path fill="#f57f17" d="M 91.671875 166.210938 C 92.289062 166.871094 92.253906 167.910156 91.589844 168.527344 C 90.929688 169.144531 89.890625 169.109375 89.273438 168.449219 C 88.65625 167.785156 88.691406 166.746094 89.355469 166.128906 C 90.015625 165.511719 91.054688 165.546875 91.671875 166.210938 Z M 110.871094 148.308594 C 111.488281 148.972656 112.527344 149.007812 113.191406 148.390625 C 113.855469 147.773438 113.890625 146.734375 113.273438 146.074219 C 112.65625 145.410156 111.617188 145.375 110.953125 145.992188 C 110.292969 146.609375 110.253906 147.648438 110.871094 148.308594 Z M 110.871094 148.308594 " fill-opacity="1" fill-rule="nonzero"/></g></g></g></g><g clip-path="url(#cc12d62d00)"><g clip-path="url(#a3b8376352)"><g clip-path="url(#85a49424d9)"><g clip-path="url(#a03dba5782)"><path fill="#ffffff" d="M 84.492188 139.261719 C 84.226562 139.503906 83.992188 139.773438 83.78125 140.0625 C 83.574219 140.355469 83.394531 140.664062 83.242188 140.992188 C 83.09375 141.316406 82.980469 141.65625 82.898438 142.003906 C 82.816406 142.355469 82.765625 142.710938 82.753906 143.070312 C 82.742188 143.425781 82.765625 143.785156 82.824219 144.136719 C 82.878906 144.492188 82.972656 144.839844 83.097656 145.175781 C 83.222656 145.511719 83.378906 145.832031 83.570312 146.136719 C 83.757812 146.441406 83.976562 146.726562 84.21875 146.988281 C 84.464844 147.25 84.734375 147.488281 85.023438 147.699219 C 85.316406 147.90625 85.625 148.085938 85.953125 148.234375 C 86.277344 148.386719 86.617188 148.5 86.964844 148.582031 C 87.316406 148.664062 87.667969 148.710938 88.027344 148.726562 C 88.386719 148.738281 88.742188 148.714844 89.097656 148.65625 C 89.453125 148.601562 89.796875 148.507812 90.132812 148.382812 C 90.472656 148.257812 90.792969 148.097656 91.097656 147.910156 C 91.402344 147.722656 91.6875 147.503906 91.949219 147.261719 C 92.210938 147.015625 92.449219 146.746094 92.65625 146.457031 C 92.867188 146.164062 93.046875 145.855469 93.195312 145.527344 C 93.34375 145.203125 93.460938 144.863281 93.542969 144.515625 C 93.625 144.164062 93.671875 143.808594 93.683594 143.453125 C 93.699219 143.09375 93.675781 142.734375 93.617188 142.382812 C 93.558594 142.027344 93.46875 141.679688 93.34375 141.34375 C 93.21875 141.007812 93.058594 140.6875 92.871094 140.382812 C 92.683594 140.078125 92.464844 139.792969 92.21875 139.53125 C 91.976562 139.269531 91.707031 139.03125 91.414062 138.820312 C 91.125 138.613281 90.816406 138.433594 90.488281 138.285156 C 90.160156 138.136719 89.824219 138.019531 89.472656 137.9375 C 89.125 137.855469 88.769531 137.808594 88.410156 137.792969 C 88.050781 137.78125 87.695312 137.804688 87.339844 137.863281 C 86.988281 137.917969 86.640625 138.011719 86.304688 138.136719 C 85.96875 138.261719 85.648438 138.421875 85.34375 138.609375 C 85.039062 138.796875 84.753906 139.015625 84.492188 139.261719 Z M 84.492188 139.261719 " fill-opacity="1" fill-rule="nonzero"/></g></g></g></g><g clip-path="url(#190b639c12)"><g clip-path="url(#f8a54d3c5e)"><g clip-path="url(#5f4d4d85be)"><g clip-path="url(#f1658fad3a)"><path fill="#f44336" d="M 86.855469 145.925781 C 86.855469 145.925781 85.222656 146.402344 85.121094 146.351562 C 85.015625 146.296875 83.933594 141.324219 83.933594 141.324219 L 86.414062 141.351562 L 86.597656 138.792969 L 91.519531 140.382812 L 91.027344 142.140625 L 87.632812 140.316406 L 87.691406 142.605469 L 85.269531 142.472656 Z M 86.855469 145.925781 " fill-opacity="1" fill-rule="nonzero"/></g></g></g></g><g clip-path="url(#cfc9521471)"><g clip-path="url(#28f1938d5a)"><g clip-path="url(#09276c3d2f)"><g clip-path="url(#7cefec22d6)"><path fill="#ffb74d" d="M 112.085938 168.859375 C 109.90625 170.894531 108.242188 171.242188 106.632812 171.582031 C 106.203125 171.671875 105.757812 171.765625 105.28125 171.898438 C 105.027344 171.96875 104.730469 172.070312 104.40625 172.183594 C 102.066406 172.980469 97.535156 174.101562 93.484375 169.757812 C 92.652344 168.867188 91.792969 167.671875 90.878906 166.292969 C 90.242188 165.328125 89.386719 163.757812 89.0625 163.410156 C 88.527344 162.835938 85.839844 160.746094 84.53125 160.15625 C 84.53125 160.15625 83.535156 153.605469 91.203125 146.460938 C 98.871094 139.3125 104.53125 141.511719 104.53125 141.511719 L 105.332031 140.765625 C 105.832031 142.109375 107.726562 144.9375 108.261719 145.511719 C 108.585938 145.855469 110.09375 146.824219 111.007812 147.523438 C 112.320312 148.53125 113.453125 149.472656 114.28125 150.363281 C 118.335938 154.710938 116.898438 159.152344 115.9375 161.433594 C 115.800781 161.75 115.679688 162.035156 115.589844 162.285156 C 115.425781 162.75 115.304688 163.1875 115.183594 163.609375 C 114.734375 165.191406 114.265625 166.828125 112.085938 168.859375 Z M 112.085938 168.859375 " fill-opacity="1" fill-rule="nonzero"/></g></g></g></g><g clip-path="url(#f784f91b9f)"><g clip-path="url(#528c0d77e7)"><g clip-path="url(#0c703b7806)"><g clip-path="url(#9bfef09e52)"><path fill="#ffffff" d="M 101.171875 149.128906 C 102.054688 148.304688 103.605469 148.535156 104.636719 149.640625 C 105.664062 150.742188 105.785156 152.304688 104.898438 153.128906 C 104.015625 153.953125 102.464844 153.726562 101.433594 152.621094 C 100.40625 151.515625 100.285156 149.953125 101.171875 149.128906 Z M 96.636719 157.097656 C 97.664062 158.203125 97.785156 159.765625 96.898438 160.589844 C 96.015625 161.414062 94.464844 161.1875 93.433594 160.082031 C 92.40625 158.976562 92.285156 157.414062 93.171875 156.589844 C 94.054688 155.765625 95.605469 155.992188 96.636719 157.097656 Z M 96.636719 157.097656 " fill-opacity="1" fill-rule="nonzero"/></g></g></g></g><g clip-path="url(#0102996668)"><g clip-path="url(#0e385aa8aa)"><g clip-path="url(#27814dc102)"><g clip-path="url(#185769d8e8)"><path fill="#2196f3" d="M 101.515625 150.304688 C 102.179688 149.6875 103.382812 149.902344 104.207031 150.785156 C 105.03125 151.667969 105.160156 152.886719 104.5 153.503906 C 103.835938 154.121094 102.632812 153.90625 101.808594 153.023438 C 100.984375 152.136719 100.855469 150.921875 101.515625 150.304688 Z M 97.007812 157.496094 C 97.832031 158.382812 97.960938 159.597656 97.300781 160.214844 C 96.636719 160.832031 95.433594 160.617188 94.609375 159.734375 C 93.785156 158.851562 93.652344 157.632812 94.316406 157.015625 C 94.976562 156.398438 96.183594 156.613281 97.007812 157.496094 Z M 97.007812 157.496094 " fill-opacity="1" fill-rule="nonzero"/></g></g></g></g><g clip-path="url(#2ba47b3d2e)"><g clip-path="url(#70e6c68206)"><g clip-path="url(#a3f315b3f2)"><g clip-path="url(#d42618d9a5)"><path fill="#263238" d="M 101.863281 151.476562 C 102.304688 151.066406 103.164062 151.269531 103.78125 151.929688 C 104.398438 152.59375 104.542969 153.464844 104.097656 153.875 C 103.65625 154.289062 102.796875 154.085938 102.179688 153.421875 C 101.5625 152.761719 101.421875 151.886719 101.863281 151.476562 Z M 97.378906 157.898438 C 98 158.558594 98.140625 159.429688 97.699219 159.84375 C 97.257812 160.253906 96.398438 160.050781 95.78125 159.390625 C 95.164062 158.726562 95.019531 157.855469 95.460938 157.441406 C 95.902344 157.03125 96.761719 157.234375 97.378906 157.898438 Z M 103.625 145.347656 C 103.625 145.347656 102.957031 145.605469 102.125 145.886719 C 101.714844 146.046875 101.257812 146.214844 100.902344 146.421875 C 100.734375 146.53125 100.574219 146.636719 100.496094 146.738281 L 100.476562 146.753906 L 100.46875 146.765625 L 100.464844 146.765625 C 100.492188 146.742188 100.402344 146.828125 100.523438 146.707031 L 100.515625 146.71875 L 100.445312 146.808594 L 100.296875 146.976562 C 100.175781 147.105469 100.21875 147.128906 100.15625 147.195312 C 100.066406 147.339844 99.957031 147.558594 99.867188 147.765625 C 99.777344 147.980469 99.699219 148.207031 99.617188 148.441406 C 99.46875 148.914062 99.339844 149.398438 99.214844 149.832031 C 98.992188 150.699219 98.769531 151.367188 98.769531 151.367188 C 98.769531 151.367188 98.277344 150.84375 97.976562 149.882812 C 97.8125 149.40625 97.699219 148.820312 97.714844 148.160156 C 97.71875 147.828125 97.765625 147.480469 97.855469 147.125 C 97.949219 146.757812 98.082031 146.417969 98.304688 146.039062 C 98.417969 145.859375 98.597656 145.605469 98.691406 145.515625 L 98.847656 145.351562 L 98.929688 145.273438 L 99.007812 145.195312 L 99.019531 145.1875 L 99.050781 145.160156 L 99.121094 145.109375 C 99.492188 144.808594 99.886719 144.675781 100.246094 144.574219 C 100.972656 144.417969 101.589844 144.480469 102.089844 144.609375 C 103.089844 144.855469 103.625 145.347656 103.625 145.347656 Z M 95.199219 154.089844 C 94.957031 153.941406 94.59375 153.746094 94.132812 153.578125 C 93.902344 153.484375 93.644531 153.421875 93.363281 153.355469 C 93.082031 153.285156 92.777344 153.238281 92.453125 153.21875 C 91.8125 153.179688 91.066406 153.234375 90.332031 153.566406 C 89.945312 153.738281 89.644531 153.933594 89.269531 154.277344 L 89.109375 154.445312 C 89.03125 154.546875 88.953125 154.648438 88.878906 154.753906 C 88.746094 154.972656 88.679688 155.125 88.601562 155.3125 C 88.34375 156.023438 88.355469 156.660156 88.453125 157.175781 C 88.554688 157.695312 88.738281 158.09375 88.910156 158.363281 C 89.074219 158.632812 89.222656 158.773438 89.222656 158.773438 C 89.222656 158.773438 89.34375 158.605469 89.488281 158.34375 C 89.644531 158.082031 89.820312 157.71875 90.011719 157.328125 C 90.199219 156.9375 90.394531 156.511719 90.578125 156.167969 C 90.621094 156.097656 90.679688 155.984375 90.707031 155.957031 C 90.71875 155.941406 90.722656 155.921875 90.726562 155.898438 L 90.863281 155.738281 C 90.910156 155.65625 91.109375 155.5 91.265625 155.390625 C 91.976562 154.921875 93.144531 154.691406 94.019531 154.5625 C 94.90625 154.441406 95.570312 154.351562 95.570312 154.351562 C 95.570312 154.351562 95.441406 154.25 95.199219 154.089844 Z M 112.207031 152.949219 C 113.175781 153.988281 113.066406 155.59375 112.414062 156.199219 C 113.378906 157.640625 113.082031 158.914062 112.277344 159.660156 C 111.476562 160.40625 110.792969 160.515625 110.792969 160.515625 C 110.792969 160.515625 110.988281 162.355469 109.929688 163.34375 C 109 164.210938 107.871094 164.375 107.871094 164.375 C 107.871094 164.375 107.722656 165.453125 106.847656 166.269531 C 105.722656 167.316406 104.015625 166.96875 103.839844 166.964844 C 103.808594 167.042969 103.65625 167.707031 102.945312 168.367188 C 101.304688 169.898438 99.488281 168.289062 99.488281 168.289062 C 99.488281 168.289062 97.855469 169.636719 96.15625 167.8125 C 94.714844 166.265625 94.871094 165.46875 94.871094 165.46875 C 94.871094 165.46875 96.207031 166.34375 99.835938 163.980469 C 101.652344 165.171875 104.4375 164.753906 106.480469 162.847656 C 108.519531 160.945312 109.136719 158.199219 108.078125 156.304688 C 109.476562 154.46875 110.109375 152.910156 109.941406 151.457031 C 109.941406 151.453125 110.757812 151.394531 112.207031 152.949219 Z M 112.207031 152.949219 " fill-opacity="1" fill-rule="nonzero"/></g></g></g></g><g clip-path="url(#818eb82367)"><g clip-path="url(#cbabde4ac1)"><g clip-path="url(#a7beb8562c)"><g clip-path="url(#668fc90c97)"><path fill="#ffd49c" d="M 106.867188 163.261719 C 104.21875 165.726562 100.394531 165.941406 98.335938 163.734375 C 96.28125 161.53125 96.761719 157.726562 99.40625 155.261719 C 102.054688 152.792969 105.878906 152.578125 107.9375 154.785156 C 109.992188 156.992188 109.511719 160.792969 106.867188 163.261719 Z M 106.867188 163.261719 " fill-opacity="1" fill-rule="nonzero"/></g></g></g></g><g clip-path="url(#0cddb86ac7)"><g clip-path="url(#8542b8c235)"><g clip-path="url(#749d3c730f)"><g clip-path="url(#5fd56b6470)"><path fill="#795548" d="M 106.078125 141.5625 C 106.078125 141.5625 112.71875 148.875 113.410156 149.511719 C 110.15625 148.023438 108.152344 148.601562 108.152344 148.601562 L 103.679688 143.800781 Z M 85.277344 160.957031 C 85.277344 160.957031 92.109375 168.089844 92.695312 168.824219 C 91.433594 165.476562 92.152344 163.519531 92.152344 163.519531 L 87.679688 158.71875 Z M 85.277344 160.957031 " fill-opacity="1" fill-rule="nonzero"/></g></g></g></g><g clip-path="url(#248f056232)"><g clip-path="url(#2ec6e1f94b)"><g clip-path="url(#92f6569810)"><g clip-path="url(#97277dd537)"><path fill="#ff8a80" d="M 88.964844 144.058594 C 80.160156 152.269531 82.285156 159.351562 82.988281 160.101562 C 84.347656 161.5625 86.023438 161.757812 86.023438 161.757812 C 88.949219 162.488281 88.425781 159.519531 88.425781 159.519531 C 88.429688 159.453125 87.957031 153.972656 93.441406 148.859375 C 98.925781 143.746094 104.359375 144.601562 104.425781 144.601562 C 104.425781 144.601562 107.347656 145.332031 106.824219 142.363281 C 106.824219 142.363281 106.746094 140.675781 105.386719 139.21875 C 104.6875 138.46875 97.773438 135.851562 88.964844 144.058594 Z M 88.964844 144.058594 " fill-opacity="1" fill-rule="nonzero"/></g></g></g></g><g fill="#ff5757" fill-opacity="1"><g transform="translate(153.305353, 42.333832)"><g><path d="M 1.023438 -19.023438 L 0.390625 -20.878906 L -5.074219 -19.023438 L 1.238281 -0.421875 L 6.980469 -2.367188 L 3.410156 -12.890625 C 2.710938 -14.953125 4.066406 -16.488281 5.410156 -16.945312 C 6.679688 -17.375 8.0625 -16.925781 8.832031 -14.65625 L 12.378906 -4.199219 L 17.847656 -6.054688 L 14.253906 -16.648438 C 13.597656 -18.6875 15.210938 -20.269531 16.550781 -20.726562 C 17.824219 -21.15625 19.203125 -20.707031 19.972656 -18.4375 L 23.523438 -7.980469 L 28.988281 -9.835938 L 25.429688 -20.324219 C 23.433594 -26.4375 19.636719 -27.679688 15.957031 -26.429688 C 13.859375 -25.71875 11.652344 -24.085938 11.007812 -22.027344 C 9.625 -23.167969 7.863281 -23.722656 5.628906 -22.964844 C 3.667969 -22.296875 1.746094 -21.070312 1.023438 -19.023438 Z M 1.023438 -19.023438 "/></g></g></g><g fill="#ff5757" fill-opacity="1"><g transform="translate(183.218431, 32.422947)"><g><path d="M 18.542969 -13.605469 C 17.28125 -20.203125 11.660156 -22.53125 6.703125 -21.582031 C 1.671875 -20.617188 -2.65625 -16.386719 -1.394531 -9.789062 C -0.128906 -3.191406 5.460938 -0.824219 10.457031 -1.78125 C 14.449219 -2.542969 18.007812 -5.40625 18.664062 -9.894531 L 12.5625 -8.726562 C 11.914062 -7.679688 10.820312 -7.027344 9.570312 -6.785156 C 7.851562 -6.496094 5.933594 -7.050781 4.914062 -8.707031 L 18.753906 -11.355469 C 18.757812 -12.09375 18.695312 -12.820312 18.542969 -13.605469 Z M 11.992188 -14.609375 L 4.289062 -13.132812 C 4.496094 -15.132812 5.855469 -16.355469 7.53125 -16.675781 C 9.347656 -17.023438 11.089844 -16.429688 11.992188 -14.609375 Z M 11.992188 -14.609375 "/></g></g></g><g fill="#ff5757" fill-opacity="1"><g transform="translate(204.358274, 27.911509)"><g><path d="M 6.167969 -18.023438 L 6.066406 -19.980469 L 0.300781 -19.6875 L 1.304688 -0.0664062 L 7.363281 -0.375 L 6.792969 -11.472656 C 6.683594 -13.652344 8.40625 -14.757812 9.824219 -14.828125 C 11.164062 -14.898438 12.371094 -14.085938 12.492188 -11.691406 L 13.054688 -0.667969 L 18.824219 -0.964844 L 18.25 -12.132812 C 18.175781 -14.273438 20.160156 -15.359375 21.574219 -15.429688 C 22.914062 -15.5 24.121094 -14.6875 24.242188 -12.292969 L 24.804688 -1.269531 L 30.574219 -1.566406 L 30.007812 -12.625 C 29.75 -19.046875 26.4375 -21.277344 22.554688 -21.082031 C 20.34375 -20.96875 17.777344 -20 16.59375 -18.195312 C 15.574219 -19.667969 14.03125 -20.679688 11.675781 -20.558594 C 9.605469 -20.453125 7.421875 -19.796875 6.167969 -18.023438 Z M 6.167969 -18.023438 "/></g></g></g><g fill="#ff5757" fill-opacity="1"><g transform="translate(235.847014, 26.536096)"><g><path d="M 21.863281 -7.949219 C 22.46875 -14.933594 17.558594 -18.855469 12.347656 -19.308594 C 7.101562 -19.761719 1.59375 -16.738281 0.988281 -9.757812 C 0.390625 -2.808594 5.335938 1.117188 10.542969 1.566406 C 15.753906 2.019531 21.265625 -1.003906 21.863281 -7.949219 Z M 6.707031 -9.261719 C 6.992188 -12.589844 9.488281 -14.050781 11.878906 -13.84375 C 14.480469 -13.621094 16.4375 -11.773438 16.148438 -8.445312 C 15.863281 -5.152344 13.371094 -3.726562 11.019531 -3.929688 C 8.632812 -4.136719 6.421875 -5.96875 6.707031 -9.261719 Z M 6.707031 -9.261719 "/></g></g></g><g fill="#ff5757" fill-opacity="1"><g transform="translate(257.60209, 28.553594)"><g><path d="M 9.625 -16.894531 L 9.640625 -18.222656 L 4.566406 -19.136719 L 1.070312 0.195312 L 6.683594 1.207031 L 8.621094 -9.511719 C 9.09375 -12.121094 11.359375 -12.816406 13.402344 -12.484375 C 14.046875 -12.367188 14.707031 -12.140625 15.246094 -11.855469 L 16.273438 -17.132812 C 15.554688 -17.445312 14.824219 -17.691406 14.144531 -17.8125 C 12.570312 -18.097656 11.089844 -17.847656 9.625 -16.894531 Z M 9.625 -16.894531 "/></g></g></g><g fill="#ff5757" fill-opacity="1"><g transform="translate(271.240519, 30.837986)"><g><path d="M 23.605469 -12.980469 L 23.84375 -13.859375 L 18.132812 -15.417969 L 14.132812 -9.996094 L 11.421875 -5.578125 L 11.398438 -10.742188 L 10.707031 -17.441406 L 4.960938 -19.011719 L 4.722656 -18.132812 L 6.515625 0.121094 L 2.363281 5.6875 L 2.132812 6.53125 L 7.84375 8.085938 C 13.078125 1.046875 18.335938 -5.949219 23.605469 -12.980469 Z M 23.605469 -12.980469 "/></g></g></g><g fill="#ff5757" fill-opacity="1"><g transform="translate(261.83536, 124.546169)"><g><path d="M 7.542969 -17.492188 L 7.59375 -19.453125 L 1.824219 -19.605469 L 1.308594 0.0351562 L 7.371094 0.195312 L 7.660156 -10.914062 C 7.71875 -13.09375 9.523438 -14.0625 10.941406 -14.023438 C 12.285156 -13.988281 13.421875 -13.085938 13.359375 -10.691406 L 13.070312 0.34375 L 18.839844 0.496094 L 19.136719 -10.683594 C 19.226562 -12.824219 21.285156 -13.753906 22.703125 -13.714844 C 24.046875 -13.679688 25.183594 -12.777344 25.121094 -10.382812 L 24.832031 0.652344 L 30.601562 0.804688 L 30.894531 -10.265625 C 31.136719 -16.691406 28.003906 -19.171875 24.121094 -19.273438 C 21.90625 -19.332031 19.269531 -18.566406 17.953125 -16.855469 C 17.050781 -18.40625 15.589844 -19.53125 13.230469 -19.59375 C 11.160156 -19.648438 8.933594 -19.164062 7.542969 -17.492188 Z M 7.542969 -17.492188 "/></g></g></g><g fill="#ff5757" fill-opacity="1"><g transform="translate(293.708484, 125.941282)"><g/></g></g><g fill="#ff5757" fill-opacity="1"><g transform="translate(342.73536, 152.132166)"><g><path d="M 15.609375 -10.921875 L 16.683594 -12.5625 L 11.851562 -15.722656 L 1.09375 0.714844 L 6.167969 4.035156 L 12.253906 -5.261719 C 13.445312 -7.085938 15.492188 -6.960938 16.675781 -6.1875 C 17.800781 -5.449219 18.296875 -4.085938 16.984375 -2.078125 L 10.9375 7.15625 L 15.769531 10.320312 L 21.894531 0.960938 C 23.097656 -0.8125 25.335938 -0.519531 26.523438 0.253906 C 27.644531 0.992188 28.140625 2.355469 26.828125 4.363281 L 20.785156 13.601562 L 25.617188 16.761719 L 31.679688 7.492188 C 35.261719 2.15625 33.898438 -1.601562 30.648438 -3.726562 C 28.792969 -4.941406 26.148438 -5.671875 24.132812 -4.910156 C 24.175781 -6.703125 23.527344 -8.429688 21.550781 -9.722656 C 19.820312 -10.855469 17.667969 -11.613281 15.609375 -10.921875 Z M 15.609375 -10.921875 "/></g></g></g><g fill="#ff5757" fill-opacity="1"><g transform="translate(369.123127, 170.063318)"><g/></g></g><g clip-path="url(#e06dc7c678)"><g clip-path="url(#75413b503a)"><g clip-path="url(#0644a710c3)"><g clip-path="url(#a05fb7cd5f)"><path fill="#43a047" d="M 191.761719 120.417969 L 179.175781 123.554688 C 179.175781 123.554688 165.957031 129.5 169.40625 143.359375 L 209.679688 133.332031 C 206.238281 119.519531 191.761719 120.417969 191.761719 120.417969 " fill-opacity="1" fill-rule="nonzero"/></g></g></g></g><g clip-path="url(#844e67b572)"><g clip-path="url(#171d33a6a8)"><g clip-path="url(#0fd3e11225)"><g clip-path="url(#a1fcfbce9e)"><path fill="#66bb6a" d="M 176.472656 133.582031 C 176.472656 133.582031 179.503906 129.644531 183.398438 129.183594 L 179.632812 119.429688 C 179.632812 119.429688 175.578125 122.496094 176.472656 133.582031 Z M 176.472656 133.582031 " fill-opacity="1" fill-rule="nonzero"/></g></g></g></g><g clip-path="url(#613208384e)"><g clip-path="url(#2bd7cf197f)"><g clip-path="url(#f5183e5cfd)"><g clip-path="url(#92f2f6f81a)"><path fill="#66bb6a" d="M 199.125 127.941406 C 199.125 127.941406 194.605469 125.886719 190.949219 127.304688 L 189.699219 116.921875 C 189.699219 116.921875 194.714844 117.730469 199.125 127.941406 Z M 199.125 127.941406 " fill-opacity="1" fill-rule="nonzero"/></g></g></g></g><g clip-path="url(#3cc981ad4e)"><g clip-path="url(#a4eccf4fb9)"><g clip-path="url(#43c4b6d74a)"><g clip-path="url(#c630fa0b6c)"><path fill="#e53935" d="M 187.089844 89.371094 C 184.734375 86.246094 186.585938 82.949219 185.332031 77.917969 C 185.332031 77.917969 190.359375 82.011719 191.613281 87.042969 C 192.867188 92.078125 191.285156 93.808594 191.285156 93.808594 L 187.207031 90.8125 C 187.207031 90.8125 187.332031 89.691406 187.089844 89.371094 Z M 187.089844 89.371094 " fill-opacity="1" fill-rule="nonzero"/></g></g></g></g><g clip-path="url(#87dde5549d)"><g clip-path="url(#efdcc45174)"><g clip-path="url(#22fc4a4840)"><g clip-path="url(#06d87649a8)"><path fill="#ff9800" d="M 177.433594 115.96875 L 179.3125 123.519531 C 179.3125 123.519531 182.277344 129.464844 188.425781 133.277344 C 192.34375 126.957031 191.898438 120.386719 191.898438 120.386719 L 190.019531 112.835938 Z M 177.433594 115.96875 " fill-opacity="1" fill-rule="nonzero"/></g></g></g></g><g clip-path="url(#343dd3b99e)"><g clip-path="url(#4d517a4880)"><g clip-path="url(#98f52983fb)"><g clip-path="url(#34ab50bc3a)"><path fill="#ffa726" d="M 195.550781 103.4375 C 195.898438 104.828125 195.050781 106.234375 193.660156 106.582031 C 192.269531 106.925781 190.863281 106.082031 190.515625 104.691406 C 190.171875 103.300781 191.015625 101.894531 192.40625 101.546875 C 193.796875 101.203125 195.203125 102.046875 195.550781 103.4375 " fill-opacity="1" fill-rule="nonzero"/></g></g></g></g><g clip-path="url(#54ba1f70e9)"><g clip-path="url(#9ebafe7349)"><g clip-path="url(#2cb3edf8fd)"><g clip-path="url(#2deaa4ce73)"><path fill="#ffa726" d="M 172.898438 109.078125 C 172.550781 107.6875 171.144531 106.84375 169.753906 107.1875 C 168.363281 107.535156 167.519531 108.941406 167.863281 110.332031 C 168.210938 111.722656 169.617188 112.570312 171.007812 112.222656 C 172.398438 111.875 173.246094 110.46875 172.898438 109.078125 " fill-opacity="1" fill-rule="nonzero"/></g></g></g></g><g clip-path="url(#5ccb333b9d)"><g clip-path="url(#17829a82e1)"><g clip-path="url(#7ef202a73b)"><g clip-path="url(#fdcbae005d)"><path fill="#ffb74d" d="M 191.152344 96.515625 C 188.761719 86.90625 166.945312 95.898438 168.5 102.15625 L 170.695312 110.964844 C 172.253906 117.21875 178.585938 121.027344 184.84375 119.46875 C 191.097656 117.910156 194.90625 111.578125 193.347656 105.324219 Z M 191.152344 96.515625 " fill-opacity="1" fill-rule="nonzero"/></g></g></g></g><g clip-path="url(#cd69d97d14)"><g clip-path="url(#29efc49c2a)"><g clip-path="url(#8780f07bdf)"><g clip-path="url(#259fa8dbea)"><path fill="#e65100" d="M 177.007812 88.007812 C 169.363281 89.914062 165.964844 97.339844 167.871094 104.984375 L 168.585938 107.863281 L 171.640625 109.390625 L 170.074219 103.101562 L 180.917969 103.710938 L 190.207031 98.085938 L 191.777344 104.378906 L 193.746094 101.558594 L 193.039062 98.71875 C 191.777344 93.652344 189.21875 88.953125 182.667969 89.273438 L 180.78125 87.066406 Z M 177.007812 88.007812 " fill-opacity="1" fill-rule="nonzero"/></g></g></g></g><g clip-path="url(#425229d242)"><g clip-path="url(#7502dd0374)"><g clip-path="url(#e450eb94f9)"><g clip-path="url(#dba3177acd)"><path fill="#784719" d="M 185.484375 105.945312 C 185.308594 105.25 185.734375 104.546875 186.429688 104.371094 C 187.121094 104.199219 187.828125 104.625 188 105.316406 C 188.171875 106.011719 187.75 106.714844 187.054688 106.890625 C 186.359375 107.0625 185.65625 106.636719 185.484375 105.945312 " fill-opacity="1" fill-rule="nonzero"/></g></g></g></g><g clip-path="url(#1e0948743b)"><g clip-path="url(#3b6725df40)"><g clip-path="url(#6e6b5eea00)"><g clip-path="url(#6160572430)"><path fill="#784719" d="M 175.414062 108.453125 C 175.589844 109.144531 176.292969 109.570312 176.988281 109.398438 C 177.683594 109.222656 178.105469 108.519531 177.933594 107.824219 C 177.761719 107.132812 177.054688 106.707031 176.359375 106.878906 C 175.667969 107.054688 175.242188 107.757812 175.414062 108.453125 " fill-opacity="1" fill-rule="nonzero"/></g></g></g></g><g clip-path="url(#28e8160081)"><g clip-path="url(#6853de7d61)"><g clip-path="url(#3bffe30fa2)"><g clip-path="url(#3c5ada5ee3)"><path fill="#43a047" d="M 176.203125 84.199219 C 176.203125 84.199219 168.507812 89.804688 167.390625 99.757812 L 179.964844 99.300781 L 191.285156 93.808594 C 185.632812 85.539062 176.203125 84.199219 176.203125 84.199219 Z M 176.203125 84.199219 " fill-opacity="1" fill-rule="nonzero"/></g></g></g></g></svg>