<svg xmlns="http://www.w3.org/2000/svg" xmlns:xlink="http://www.w3.org/1999/xlink" width="600" zoomAndPan="magnify" viewBox="0 0 450 299.999988" height="400" preserveAspectRatio="xMidYMid meet" version="1.0"><defs><g/><clipPath id="d08e87a5c5"><path d="M 276 74 L 441 74 L 441 261 L 276 261 Z M 276 74 " clip-rule="nonzero"/></clipPath><clipPath id="ffe65606db"><path d="M 432.867188 265.347656 L 218.65625 254.242188 L 229.757812 40.03125 L 443.96875 51.132812 Z M 432.867188 265.347656 " clip-rule="nonzero"/></clipPath><clipPath id="aab78880f3"><path d="M 230.046875 40.351562 L 444.257812 51.453125 L 433.15625 265.667969 L 218.941406 254.5625 Z M 230.046875 40.351562 " clip-rule="nonzero"/></clipPath><clipPath id="60734e0072"><path d="M 282.285156 68.441406 L 442.945312 76.769531 L 433.105469 266.640625 L 272.445312 258.3125 Z M 282.285156 68.441406 " clip-rule="nonzero"/></clipPath><clipPath id="86453cf13c"><path d="M 282.285156 68.441406 L 442.945312 76.769531 L 433.214844 264.492188 L 272.558594 256.164062 Z M 282.285156 68.441406 " clip-rule="nonzero"/></clipPath><clipPath id="654cb33fa5"><path d="M 222 42 L 336 42 L 336 212 L 222 212 Z M 222 42 " clip-rule="nonzero"/></clipPath><clipPath id="f2cb154f5a"><path d="M 432.867188 265.347656 L 218.65625 254.242188 L 229.757812 40.03125 L 443.96875 51.132812 Z M 432.867188 265.347656 " clip-rule="nonzero"/></clipPath><clipPath id="d1112f2f18"><path d="M 230.046875 40.351562 L 444.257812 51.453125 L 433.15625 265.667969 L 218.941406 254.5625 Z M 230.046875 40.351562 " clip-rule="nonzero"/></clipPath><clipPath id="c590a51fb6"><path d="M 117 41 L 254 41 L 254 222 L 117 222 Z M 117 41 " clip-rule="nonzero"/></clipPath><clipPath id="5cf7137ecc"><path d="M 6.320312 135.035156 L 162.070312 -12.453125 L 309.558594 143.296875 L 153.808594 290.785156 Z M 6.320312 135.035156 " clip-rule="nonzero"/></clipPath><clipPath id="0fd85b9d22"><path d="M 6.320312 135.035156 L 162.070312 -12.453125 L 309.558594 143.296875 L 153.808594 290.785156 Z M 6.320312 135.035156 " clip-rule="nonzero"/></clipPath><clipPath id="97741548f8"><path d="M 62.6875 116.570312 L 179.5 5.953125 L 310.226562 144.003906 L 193.414062 254.621094 Z M 62.6875 116.570312 " clip-rule="nonzero"/></clipPath><clipPath id="c8ff2cf5a5"><path d="M 62.6875 116.570312 L 179.5 5.953125 L 308.746094 142.441406 L 191.9375 253.058594 Z M 62.6875 116.570312 " clip-rule="nonzero"/></clipPath><clipPath id="ac7c851799"><path d="M 13 68 L 193 68 L 193 250 L 13 250 Z M 13 68 " clip-rule="nonzero"/></clipPath><clipPath id="26608347ca"><path d="M 6.320312 135.035156 L 162.070312 -12.453125 L 309.558594 143.296875 L 153.808594 290.785156 Z M 6.320312 135.035156 " clip-rule="nonzero"/></clipPath><clipPath id="ec74646f1e"><path d="M 6.320312 135.035156 L 162.070312 -12.453125 L 309.558594 143.296875 L 153.808594 290.785156 Z M 6.320312 135.035156 " clip-rule="nonzero"/></clipPath><clipPath id="581c31871a"><path d="M 253 125 L 298 125 L 298 145 L 253 145 Z M 253 125 " clip-rule="nonzero"/></clipPath><clipPath id="87c161a675"><path d="M 244.589844 79.636719 L 310.566406 81.433594 L 308.769531 147.410156 L 242.792969 145.613281 Z M 244.589844 79.636719 " clip-rule="nonzero"/></clipPath><clipPath id="878cc84092"><path d="M 244.589844 79.636719 L 310.566406 81.433594 L 308.769531 147.410156 L 242.792969 145.613281 Z M 244.589844 79.636719 " clip-rule="nonzero"/></clipPath><clipPath id="cd1e0bf377"><path d="M 244.589844 79.636719 L 310.566406 81.433594 L 308.769531 147.410156 L 242.792969 145.613281 Z M 244.589844 79.636719 " clip-rule="nonzero"/></clipPath><clipPath id="585039cd15"><path d="M 263 121 L 273 121 L 273 136 L 263 136 Z M 263 121 " clip-rule="nonzero"/></clipPath><clipPath id="a416f8a636"><path d="M 244.589844 79.636719 L 310.566406 81.433594 L 308.769531 147.410156 L 242.792969 145.613281 Z M 244.589844 79.636719 " clip-rule="nonzero"/></clipPath><clipPath id="8953ded9ec"><path d="M 244.589844 79.636719 L 310.566406 81.433594 L 308.769531 147.410156 L 242.792969 145.613281 Z M 244.589844 79.636719 " clip-rule="nonzero"/></clipPath><clipPath id="233c7ede16"><path d="M 244.589844 79.636719 L 310.566406 81.433594 L 308.769531 147.410156 L 242.792969 145.613281 Z M 244.589844 79.636719 " clip-rule="nonzero"/></clipPath><clipPath id="0a43671969"><path d="M 280 121 L 289 121 L 289 136 L 280 136 Z M 280 121 " clip-rule="nonzero"/></clipPath><clipPath id="5b9ed8889c"><path d="M 244.589844 79.636719 L 310.566406 81.433594 L 308.769531 147.410156 L 242.792969 145.613281 Z M 244.589844 79.636719 " clip-rule="nonzero"/></clipPath><clipPath id="eccc6df3ee"><path d="M 244.589844 79.636719 L 310.566406 81.433594 L 308.769531 147.410156 L 242.792969 145.613281 Z M 244.589844 79.636719 " clip-rule="nonzero"/></clipPath><clipPath id="a6e3f742cc"><path d="M 244.589844 79.636719 L 310.566406 81.433594 L 308.769531 147.410156 L 242.792969 145.613281 Z M 244.589844 79.636719 " clip-rule="nonzero"/></clipPath><clipPath id="2cbe4601e2"><path d="M 286 80 L 293 80 L 293 99 L 286 99 Z M 286 80 " clip-rule="nonzero"/></clipPath><clipPath id="65cc8e4933"><path d="M 244.589844 79.636719 L 310.566406 81.433594 L 308.769531 147.410156 L 242.792969 145.613281 Z M 244.589844 79.636719 " clip-rule="nonzero"/></clipPath><clipPath id="582cafe504"><path d="M 244.589844 79.636719 L 310.566406 81.433594 L 308.769531 147.410156 L 242.792969 145.613281 Z M 244.589844 79.636719 " clip-rule="nonzero"/></clipPath><clipPath id="fdcfda28f2"><path d="M 244.589844 79.636719 L 310.566406 81.433594 L 308.769531 147.410156 L 242.792969 145.613281 Z M 244.589844 79.636719 " clip-rule="nonzero"/></clipPath><clipPath id="d80cef3e16"><path d="M 269 117 L 284 117 L 284 139 L 269 139 Z M 269 117 " clip-rule="nonzero"/></clipPath><clipPath id="6234795c5d"><path d="M 244.589844 79.636719 L 310.566406 81.433594 L 308.769531 147.410156 L 242.792969 145.613281 Z M 244.589844 79.636719 " clip-rule="nonzero"/></clipPath><clipPath id="ee88854f38"><path d="M 244.589844 79.636719 L 310.566406 81.433594 L 308.769531 147.410156 L 242.792969 145.613281 Z M 244.589844 79.636719 " clip-rule="nonzero"/></clipPath><clipPath id="221f44f6c8"><path d="M 244.589844 79.636719 L 310.566406 81.433594 L 308.769531 147.410156 L 242.792969 145.613281 Z M 244.589844 79.636719 " clip-rule="nonzero"/></clipPath><clipPath id="629f5aded6"><path d="M 286 106 L 292 106 L 292 113 L 286 113 Z M 286 106 " clip-rule="nonzero"/></clipPath><clipPath id="75c00d8320"><path d="M 244.589844 79.636719 L 310.566406 81.433594 L 308.769531 147.410156 L 242.792969 145.613281 Z M 244.589844 79.636719 " clip-rule="nonzero"/></clipPath><clipPath id="f3088f0327"><path d="M 244.589844 79.636719 L 310.566406 81.433594 L 308.769531 147.410156 L 242.792969 145.613281 Z M 244.589844 79.636719 " clip-rule="nonzero"/></clipPath><clipPath id="4acac84fa3"><path d="M 244.589844 79.636719 L 310.566406 81.433594 L 308.769531 147.410156 L 242.792969 145.613281 Z M 244.589844 79.636719 " clip-rule="nonzero"/></clipPath><clipPath id="c3ad76d12d"><path d="M 261 106 L 268 106 L 268 112 L 261 112 Z M 261 106 " clip-rule="nonzero"/></clipPath><clipPath id="a75d3a8aad"><path d="M 244.589844 79.636719 L 310.566406 81.433594 L 308.769531 147.410156 L 242.792969 145.613281 Z M 244.589844 79.636719 " clip-rule="nonzero"/></clipPath><clipPath id="57b00fdd8c"><path d="M 244.589844 79.636719 L 310.566406 81.433594 L 308.769531 147.410156 L 242.792969 145.613281 Z M 244.589844 79.636719 " clip-rule="nonzero"/></clipPath><clipPath id="7a51571e96"><path d="M 244.589844 79.636719 L 310.566406 81.433594 L 308.769531 147.410156 L 242.792969 145.613281 Z M 244.589844 79.636719 " clip-rule="nonzero"/></clipPath><clipPath id="a53163489c"><path d="M 264 94 L 290 94 L 290 124 L 264 124 Z M 264 94 " clip-rule="nonzero"/></clipPath><clipPath id="40407fbc26"><path d="M 244.589844 79.636719 L 310.566406 81.433594 L 308.769531 147.410156 L 242.792969 145.613281 Z M 244.589844 79.636719 " clip-rule="nonzero"/></clipPath><clipPath id="f91063101f"><path d="M 244.589844 79.636719 L 310.566406 81.433594 L 308.769531 147.410156 L 242.792969 145.613281 Z M 244.589844 79.636719 " clip-rule="nonzero"/></clipPath><clipPath id="9c06623075"><path d="M 244.589844 79.636719 L 310.566406 81.433594 L 308.769531 147.410156 L 242.792969 145.613281 Z M 244.589844 79.636719 " clip-rule="nonzero"/></clipPath><clipPath id="32272541bd"><path d="M 263 88 L 291 88 L 291 110 L 263 110 Z M 263 88 " clip-rule="nonzero"/></clipPath><clipPath id="0389b32dce"><path d="M 244.589844 79.636719 L 310.566406 81.433594 L 308.769531 147.410156 L 242.792969 145.613281 Z M 244.589844 79.636719 " clip-rule="nonzero"/></clipPath><clipPath id="7addb27ff1"><path d="M 244.589844 79.636719 L 310.566406 81.433594 L 308.769531 147.410156 L 242.792969 145.613281 Z M 244.589844 79.636719 " clip-rule="nonzero"/></clipPath><clipPath id="a9545d9d95"><path d="M 244.589844 79.636719 L 310.566406 81.433594 L 308.769531 147.410156 L 242.792969 145.613281 Z M 244.589844 79.636719 " clip-rule="nonzero"/></clipPath><clipPath id="cd1baeffdf"><path d="M 280 108 L 284 108 L 284 111 L 280 111 Z M 280 108 " clip-rule="nonzero"/></clipPath><clipPath id="c02b667263"><path d="M 244.589844 79.636719 L 310.566406 81.433594 L 308.769531 147.410156 L 242.792969 145.613281 Z M 244.589844 79.636719 " clip-rule="nonzero"/></clipPath><clipPath id="7bd84bfb13"><path d="M 244.589844 79.636719 L 310.566406 81.433594 L 308.769531 147.410156 L 242.792969 145.613281 Z M 244.589844 79.636719 " clip-rule="nonzero"/></clipPath><clipPath id="63291fab90"><path d="M 244.589844 79.636719 L 310.566406 81.433594 L 308.769531 147.410156 L 242.792969 145.613281 Z M 244.589844 79.636719 " clip-rule="nonzero"/></clipPath><clipPath id="c099380734"><path d="M 269 107 L 273 107 L 273 111 L 269 111 Z M 269 107 " clip-rule="nonzero"/></clipPath><clipPath id="2250bd0e61"><path d="M 244.589844 79.636719 L 310.566406 81.433594 L 308.769531 147.410156 L 242.792969 145.613281 Z M 244.589844 79.636719 " clip-rule="nonzero"/></clipPath><clipPath id="46a62ee78b"><path d="M 244.589844 79.636719 L 310.566406 81.433594 L 308.769531 147.410156 L 242.792969 145.613281 Z M 244.589844 79.636719 " clip-rule="nonzero"/></clipPath><clipPath id="d2fec96fbc"><path d="M 244.589844 79.636719 L 310.566406 81.433594 L 308.769531 147.410156 L 242.792969 145.613281 Z M 244.589844 79.636719 " clip-rule="nonzero"/></clipPath><clipPath id="ef8f8a5980"><path d="M 264 84 L 291 84 L 291 102 L 264 102 Z M 264 84 " clip-rule="nonzero"/></clipPath><clipPath id="ec553f7658"><path d="M 244.589844 79.636719 L 310.566406 81.433594 L 308.769531 147.410156 L 242.792969 145.613281 Z M 244.589844 79.636719 " clip-rule="nonzero"/></clipPath><clipPath id="f82354febd"><path d="M 244.589844 79.636719 L 310.566406 81.433594 L 308.769531 147.410156 L 242.792969 145.613281 Z M 244.589844 79.636719 " clip-rule="nonzero"/></clipPath><clipPath id="f22fcbd699"><path d="M 244.589844 79.636719 L 310.566406 81.433594 L 308.769531 147.410156 L 242.792969 145.613281 Z M 244.589844 79.636719 " clip-rule="nonzero"/></clipPath><clipPath id="dd81bb7fe2"><path d="M 167 96 L 205 96 L 205 125 L 167 125 Z M 167 96 " clip-rule="nonzero"/></clipPath><clipPath id="f740e5ae68"><path d="M 155.136719 99.394531 L 205.972656 86.285156 L 219.078125 137.125 L 168.242188 150.230469 Z M 155.136719 99.394531 " clip-rule="nonzero"/></clipPath><clipPath id="4baf1465ae"><path d="M 155.136719 99.394531 L 205.972656 86.285156 L 219.078125 137.125 L 168.242188 150.230469 Z M 155.136719 99.394531 " clip-rule="nonzero"/></clipPath><clipPath id="e4041acca4"><path d="M 155.136719 99.394531 L 205.972656 86.285156 L 219.078125 137.125 L 168.242188 150.230469 Z M 155.136719 99.394531 " clip-rule="nonzero"/></clipPath><clipPath id="71dc4dbe2f"><path d="M 168 114 L 208 114 L 208 134 L 168 134 Z M 168 114 " clip-rule="nonzero"/></clipPath><clipPath id="fa9d89eedd"><path d="M 155.136719 99.394531 L 205.972656 86.285156 L 219.078125 137.125 L 168.242188 150.230469 Z M 155.136719 99.394531 " clip-rule="nonzero"/></clipPath><clipPath id="49f83d5545"><path d="M 155.136719 99.394531 L 205.972656 86.285156 L 219.078125 137.125 L 168.242188 150.230469 Z M 155.136719 99.394531 " clip-rule="nonzero"/></clipPath><clipPath id="2bd284d030"><path d="M 155.136719 99.394531 L 205.972656 86.285156 L 219.078125 137.125 L 168.242188 150.230469 Z M 155.136719 99.394531 " clip-rule="nonzero"/></clipPath><clipPath id="1f2d1dcc58"><path d="M 172 118 L 205 118 L 205 130 L 172 130 Z M 172 118 " clip-rule="nonzero"/></clipPath><clipPath id="8b09ea715b"><path d="M 155.136719 99.394531 L 205.972656 86.285156 L 219.078125 137.125 L 168.242188 150.230469 Z M 155.136719 99.394531 " clip-rule="nonzero"/></clipPath><clipPath id="eb262eb2be"><path d="M 155.136719 99.394531 L 205.972656 86.285156 L 219.078125 137.125 L 168.242188 150.230469 Z M 155.136719 99.394531 " clip-rule="nonzero"/></clipPath><clipPath id="b220b964d9"><path d="M 155.136719 99.394531 L 205.972656 86.285156 L 219.078125 137.125 L 168.242188 150.230469 Z M 155.136719 99.394531 " clip-rule="nonzero"/></clipPath><clipPath id="44c83744ae"><path d="M 178 100 L 190 100 L 190 112 L 178 112 Z M 178 100 " clip-rule="nonzero"/></clipPath><clipPath id="eab5506069"><path d="M 155.136719 99.394531 L 205.972656 86.285156 L 219.078125 137.125 L 168.242188 150.230469 Z M 155.136719 99.394531 " clip-rule="nonzero"/></clipPath><clipPath id="bc4dbff01c"><path d="M 155.136719 99.394531 L 205.972656 86.285156 L 219.078125 137.125 L 168.242188 150.230469 Z M 155.136719 99.394531 " clip-rule="nonzero"/></clipPath><clipPath id="25a2cd61ff"><path d="M 155.136719 99.394531 L 205.972656 86.285156 L 219.078125 137.125 L 168.242188 150.230469 Z M 155.136719 99.394531 " clip-rule="nonzero"/></clipPath><clipPath id="e458c96e5b"><path d="M 179 100 L 189 100 L 189 108 L 179 108 Z M 179 100 " clip-rule="nonzero"/></clipPath><clipPath id="5a4819117f"><path d="M 155.136719 99.394531 L 205.972656 86.285156 L 219.078125 137.125 L 168.242188 150.230469 Z M 155.136719 99.394531 " clip-rule="nonzero"/></clipPath><clipPath id="27de3fb62a"><path d="M 155.136719 99.394531 L 205.972656 86.285156 L 219.078125 137.125 L 168.242188 150.230469 Z M 155.136719 99.394531 " clip-rule="nonzero"/></clipPath><clipPath id="64afb0db35"><path d="M 155.136719 99.394531 L 205.972656 86.285156 L 219.078125 137.125 L 168.242188 150.230469 Z M 155.136719 99.394531 " clip-rule="nonzero"/></clipPath><clipPath id="8e80cc5399"><path d="M 172 108 L 204 108 L 204 140 L 172 140 Z M 172 108 " clip-rule="nonzero"/></clipPath><clipPath id="1cd3ed7b63"><path d="M 155.136719 99.394531 L 205.972656 86.285156 L 219.078125 137.125 L 168.242188 150.230469 Z M 155.136719 99.394531 " clip-rule="nonzero"/></clipPath><clipPath id="1761a72032"><path d="M 155.136719 99.394531 L 205.972656 86.285156 L 219.078125 137.125 L 168.242188 150.230469 Z M 155.136719 99.394531 " clip-rule="nonzero"/></clipPath><clipPath id="e6be76e88e"><path d="M 155.136719 99.394531 L 205.972656 86.285156 L 219.078125 137.125 L 168.242188 150.230469 Z M 155.136719 99.394531 " clip-rule="nonzero"/></clipPath><clipPath id="21c232a621"><path d="M 180 116 L 196 116 L 196 125 L 180 125 Z M 180 116 " clip-rule="nonzero"/></clipPath><clipPath id="aea6693c7f"><path d="M 155.136719 99.394531 L 205.972656 86.285156 L 219.078125 137.125 L 168.242188 150.230469 Z M 155.136719 99.394531 " clip-rule="nonzero"/></clipPath><clipPath id="ccb215fe10"><path d="M 155.136719 99.394531 L 205.972656 86.285156 L 219.078125 137.125 L 168.242188 150.230469 Z M 155.136719 99.394531 " clip-rule="nonzero"/></clipPath><clipPath id="5032fdcb43"><path d="M 155.136719 99.394531 L 205.972656 86.285156 L 219.078125 137.125 L 168.242188 150.230469 Z M 155.136719 99.394531 " clip-rule="nonzero"/></clipPath><clipPath id="cbb07f4b16"><path d="M 181 118 L 195 118 L 195 125 L 181 125 Z M 181 118 " clip-rule="nonzero"/></clipPath><clipPath id="bcf6765ffa"><path d="M 155.136719 99.394531 L 205.972656 86.285156 L 219.078125 137.125 L 168.242188 150.230469 Z M 155.136719 99.394531 " clip-rule="nonzero"/></clipPath><clipPath id="123904a472"><path d="M 155.136719 99.394531 L 205.972656 86.285156 L 219.078125 137.125 L 168.242188 150.230469 Z M 155.136719 99.394531 " clip-rule="nonzero"/></clipPath><clipPath id="f9338b5682"><path d="M 155.136719 99.394531 L 205.972656 86.285156 L 219.078125 137.125 L 168.242188 150.230469 Z M 155.136719 99.394531 " clip-rule="nonzero"/></clipPath><clipPath id="13a21a7fbb"><path d="M 177 112 L 201 112 L 201 135 L 177 135 Z M 177 112 " clip-rule="nonzero"/></clipPath><clipPath id="8de9974b61"><path d="M 155.136719 99.394531 L 205.972656 86.285156 L 219.078125 137.125 L 168.242188 150.230469 Z M 155.136719 99.394531 " clip-rule="nonzero"/></clipPath><clipPath id="8e92eb7a27"><path d="M 155.136719 99.394531 L 205.972656 86.285156 L 219.078125 137.125 L 168.242188 150.230469 Z M 155.136719 99.394531 " clip-rule="nonzero"/></clipPath><clipPath id="828e6fd232"><path d="M 155.136719 99.394531 L 205.972656 86.285156 L 219.078125 137.125 L 168.242188 150.230469 Z M 155.136719 99.394531 " clip-rule="nonzero"/></clipPath><clipPath id="3776923197"><path d="M 182 121 L 196 121 L 196 133 L 182 133 Z M 182 121 " clip-rule="nonzero"/></clipPath><clipPath id="45d736bfff"><path d="M 155.136719 99.394531 L 205.972656 86.285156 L 219.078125 137.125 L 168.242188 150.230469 Z M 155.136719 99.394531 " clip-rule="nonzero"/></clipPath><clipPath id="a9e8851e51"><path d="M 155.136719 99.394531 L 205.972656 86.285156 L 219.078125 137.125 L 168.242188 150.230469 Z M 155.136719 99.394531 " clip-rule="nonzero"/></clipPath><clipPath id="6f1f9ea459"><path d="M 155.136719 99.394531 L 205.972656 86.285156 L 219.078125 137.125 L 168.242188 150.230469 Z M 155.136719 99.394531 " clip-rule="nonzero"/></clipPath><clipPath id="1278008cf5"><path d="M 172 112 L 203 112 L 203 131 L 172 131 Z M 172 112 " clip-rule="nonzero"/></clipPath><clipPath id="7c030459e5"><path d="M 155.136719 99.394531 L 205.972656 86.285156 L 219.078125 137.125 L 168.242188 150.230469 Z M 155.136719 99.394531 " clip-rule="nonzero"/></clipPath><clipPath id="4744244b39"><path d="M 155.136719 99.394531 L 205.972656 86.285156 L 219.078125 137.125 L 168.242188 150.230469 Z M 155.136719 99.394531 " clip-rule="nonzero"/></clipPath><clipPath id="e9984c9c52"><path d="M 155.136719 99.394531 L 205.972656 86.285156 L 219.078125 137.125 L 168.242188 150.230469 Z M 155.136719 99.394531 " clip-rule="nonzero"/></clipPath><clipPath id="6ae689115a"><path d="M 171 105 L 202 105 L 202 122 L 171 122 Z M 171 105 " clip-rule="nonzero"/></clipPath><clipPath id="7aa1de08ac"><path d="M 155.136719 99.394531 L 205.972656 86.285156 L 219.078125 137.125 L 168.242188 150.230469 Z M 155.136719 99.394531 " clip-rule="nonzero"/></clipPath><clipPath id="ffe314b13a"><path d="M 155.136719 99.394531 L 205.972656 86.285156 L 219.078125 137.125 L 168.242188 150.230469 Z M 155.136719 99.394531 " clip-rule="nonzero"/></clipPath><clipPath id="0c63d088b5"><path d="M 155.136719 99.394531 L 205.972656 86.285156 L 219.078125 137.125 L 168.242188 150.230469 Z M 155.136719 99.394531 " clip-rule="nonzero"/></clipPath><clipPath id="943721c742"><path d="M 77 133 L 120 133 L 120 176 L 77 176 Z M 77 133 " clip-rule="nonzero"/></clipPath><clipPath id="14ccb6320d"><path d="M 58.507812 154.554688 L 100.441406 114.847656 L 140.148438 156.777344 L 98.21875 196.488281 Z M 58.507812 154.554688 " clip-rule="nonzero"/></clipPath><clipPath id="36623376db"><path d="M 58.507812 154.554688 L 100.441406 114.847656 L 140.148438 156.777344 L 98.21875 196.488281 Z M 58.507812 154.554688 " clip-rule="nonzero"/></clipPath><clipPath id="67528ae28c"><path d="M 58.507812 154.554688 L 100.441406 114.847656 L 140.148438 156.777344 L 98.21875 196.488281 Z M 58.507812 154.554688 " clip-rule="nonzero"/></clipPath><clipPath id="51842b4e18"><path d="M 87 154 L 114 154 L 114 170 L 87 170 Z M 87 154 " clip-rule="nonzero"/></clipPath><clipPath id="8c7fbbfef1"><path d="M 58.507812 154.554688 L 100.441406 114.847656 L 140.148438 156.777344 L 98.21875 196.488281 Z M 58.507812 154.554688 " clip-rule="nonzero"/></clipPath><clipPath id="21320289f5"><path d="M 58.507812 154.554688 L 100.441406 114.847656 L 140.148438 156.777344 L 98.21875 196.488281 Z M 58.507812 154.554688 " clip-rule="nonzero"/></clipPath><clipPath id="0aae9c9c54"><path d="M 58.507812 154.554688 L 100.441406 114.847656 L 140.148438 156.777344 L 98.21875 196.488281 Z M 58.507812 154.554688 " clip-rule="nonzero"/></clipPath><clipPath id="c3eb99a53e"><path d="M 65 122 L 117 122 L 117 173 L 65 173 Z M 65 122 " clip-rule="nonzero"/></clipPath><clipPath id="019e8812d3"><path d="M 58.507812 154.554688 L 100.441406 114.847656 L 140.148438 156.777344 L 98.21875 196.488281 Z M 58.507812 154.554688 " clip-rule="nonzero"/></clipPath><clipPath id="0898c46a10"><path d="M 58.507812 154.554688 L 100.441406 114.847656 L 140.148438 156.777344 L 98.21875 196.488281 Z M 58.507812 154.554688 " clip-rule="nonzero"/></clipPath><clipPath id="3d8a4b49ec"><path d="M 58.507812 154.554688 L 100.441406 114.847656 L 140.148438 156.777344 L 98.21875 196.488281 Z M 58.507812 154.554688 " clip-rule="nonzero"/></clipPath><clipPath id="9d1b5a399b"><path d="M 91 148 L 109 148 L 109 165 L 91 165 Z M 91 148 " clip-rule="nonzero"/></clipPath><clipPath id="c50cc43404"><path d="M 58.507812 154.554688 L 100.441406 114.847656 L 140.148438 156.777344 L 98.21875 196.488281 Z M 58.507812 154.554688 " clip-rule="nonzero"/></clipPath><clipPath id="a9085f266a"><path d="M 58.507812 154.554688 L 100.441406 114.847656 L 140.148438 156.777344 L 98.21875 196.488281 Z M 58.507812 154.554688 " clip-rule="nonzero"/></clipPath><clipPath id="952fc60139"><path d="M 58.507812 154.554688 L 100.441406 114.847656 L 140.148438 156.777344 L 98.21875 196.488281 Z M 58.507812 154.554688 " clip-rule="nonzero"/></clipPath><clipPath id="6402a9beb0"><path d="M 92 149 L 108 149 L 108 164 L 92 164 Z M 92 149 " clip-rule="nonzero"/></clipPath><clipPath id="2e42301fd1"><path d="M 58.507812 154.554688 L 100.441406 114.847656 L 140.148438 156.777344 L 98.21875 196.488281 Z M 58.507812 154.554688 " clip-rule="nonzero"/></clipPath><clipPath id="3603ddcb9a"><path d="M 58.507812 154.554688 L 100.441406 114.847656 L 140.148438 156.777344 L 98.21875 196.488281 Z M 58.507812 154.554688 " clip-rule="nonzero"/></clipPath><clipPath id="a7dded4d6b"><path d="M 58.507812 154.554688 L 100.441406 114.847656 L 140.148438 156.777344 L 98.21875 196.488281 Z M 58.507812 154.554688 " clip-rule="nonzero"/></clipPath><clipPath id="4b2984585d"><path d="M 347 153 L 372 153 L 372 178 L 347 178 Z M 347 153 " clip-rule="nonzero"/></clipPath><clipPath id="816b7df651"><path d="M 359.792969 102.203125 L 416.941406 138.125 L 381.023438 195.273438 L 323.875 159.351562 Z M 359.792969 102.203125 " clip-rule="nonzero"/></clipPath><clipPath id="6ed4eb20b6"><path d="M 359.792969 102.203125 L 416.941406 138.125 L 381.023438 195.273438 L 323.875 159.351562 Z M 359.792969 102.203125 " clip-rule="nonzero"/></clipPath><clipPath id="20ddcbe1ce"><path d="M 359.792969 102.203125 L 416.941406 138.125 L 381.023438 195.273438 L 323.875 159.351562 Z M 359.792969 102.203125 " clip-rule="nonzero"/></clipPath><clipPath id="3cfb007c04"><path d="M 359 146 L 376 146 L 376 165 L 359 165 Z M 359 146 " clip-rule="nonzero"/></clipPath><clipPath id="7b03e88cc1"><path d="M 359.792969 102.203125 L 416.941406 138.125 L 381.023438 195.273438 L 323.875 159.351562 Z M 359.792969 102.203125 " clip-rule="nonzero"/></clipPath><clipPath id="591272bb9e"><path d="M 359.792969 102.203125 L 416.941406 138.125 L 381.023438 195.273438 L 323.875 159.351562 Z M 359.792969 102.203125 " clip-rule="nonzero"/></clipPath><clipPath id="7c849e2793"><path d="M 359.792969 102.203125 L 416.941406 138.125 L 381.023438 195.273438 L 323.875 159.351562 Z M 359.792969 102.203125 " clip-rule="nonzero"/></clipPath><clipPath id="83ca8e4531"><path d="M 360 133 L 388 133 L 388 153 L 360 153 Z M 360 133 " clip-rule="nonzero"/></clipPath><clipPath id="961036fe30"><path d="M 359.792969 102.203125 L 416.941406 138.125 L 381.023438 195.273438 L 323.875 159.351562 Z M 359.792969 102.203125 " clip-rule="nonzero"/></clipPath><clipPath id="b2684c0041"><path d="M 359.792969 102.203125 L 416.941406 138.125 L 381.023438 195.273438 L 323.875 159.351562 Z M 359.792969 102.203125 " clip-rule="nonzero"/></clipPath><clipPath id="8ba816e4b2"><path d="M 359.792969 102.203125 L 416.941406 138.125 L 381.023438 195.273438 L 323.875 159.351562 Z M 359.792969 102.203125 " clip-rule="nonzero"/></clipPath><clipPath id="435950b40d"><path d="M 360 127 L 391 127 L 391 157 L 360 157 Z M 360 127 " clip-rule="nonzero"/></clipPath><clipPath id="1ffe6d3ba6"><path d="M 359.792969 102.203125 L 416.941406 138.125 L 381.023438 195.273438 L 323.875 159.351562 Z M 359.792969 102.203125 " clip-rule="nonzero"/></clipPath><clipPath id="ccb39f0fab"><path d="M 359.792969 102.203125 L 416.941406 138.125 L 381.023438 195.273438 L 323.875 159.351562 Z M 359.792969 102.203125 " clip-rule="nonzero"/></clipPath><clipPath id="a0d4dcfeac"><path d="M 359.792969 102.203125 L 416.941406 138.125 L 381.023438 195.273438 L 323.875 159.351562 Z M 359.792969 102.203125 " clip-rule="nonzero"/></clipPath><clipPath id="52acf4bc17"><path d="M 367 138 L 381 138 L 381 148 L 367 148 Z M 367 138 " clip-rule="nonzero"/></clipPath><clipPath id="a8e5559746"><path d="M 359.792969 102.203125 L 416.941406 138.125 L 381.023438 195.273438 L 323.875 159.351562 Z M 359.792969 102.203125 " clip-rule="nonzero"/></clipPath><clipPath id="528298fbdf"><path d="M 359.792969 102.203125 L 416.941406 138.125 L 381.023438 195.273438 L 323.875 159.351562 Z M 359.792969 102.203125 " clip-rule="nonzero"/></clipPath><clipPath id="d623315f71"><path d="M 359.792969 102.203125 L 416.941406 138.125 L 381.023438 195.273438 L 323.875 159.351562 Z M 359.792969 102.203125 " clip-rule="nonzero"/></clipPath><clipPath id="09779c38c6"><path d="M 356 153 L 372 153 L 372 169 L 356 169 Z M 356 153 " clip-rule="nonzero"/></clipPath><clipPath id="b44ce15002"><path d="M 359.792969 102.203125 L 416.941406 138.125 L 381.023438 195.273438 L 323.875 159.351562 Z M 359.792969 102.203125 " clip-rule="nonzero"/></clipPath><clipPath id="2081bf4cde"><path d="M 359.792969 102.203125 L 416.941406 138.125 L 381.023438 195.273438 L 323.875 159.351562 Z M 359.792969 102.203125 " clip-rule="nonzero"/></clipPath><clipPath id="d4e1819e13"><path d="M 359.792969 102.203125 L 416.941406 138.125 L 381.023438 195.273438 L 323.875 159.351562 Z M 359.792969 102.203125 " clip-rule="nonzero"/></clipPath><clipPath id="3cb1eb8b7b"><path d="M 356 158 L 366 158 L 366 171 L 356 171 Z M 356 158 " clip-rule="nonzero"/></clipPath><clipPath id="361ecfc77e"><path d="M 359.792969 102.203125 L 416.941406 138.125 L 381.023438 195.273438 L 323.875 159.351562 Z M 359.792969 102.203125 " clip-rule="nonzero"/></clipPath><clipPath id="188ce8baec"><path d="M 359.792969 102.203125 L 416.941406 138.125 L 381.023438 195.273438 L 323.875 159.351562 Z M 359.792969 102.203125 " clip-rule="nonzero"/></clipPath><clipPath id="e9202710a0"><path d="M 359.792969 102.203125 L 416.941406 138.125 L 381.023438 195.273438 L 323.875 159.351562 Z M 359.792969 102.203125 " clip-rule="nonzero"/></clipPath><clipPath id="4b9f33450a"><path d="M 336 152 L 378 152 L 378 185 L 336 185 Z M 336 152 " clip-rule="nonzero"/></clipPath><clipPath id="f6f923565c"><path d="M 359.792969 102.203125 L 416.941406 138.125 L 381.023438 195.273438 L 323.875 159.351562 Z M 359.792969 102.203125 " clip-rule="nonzero"/></clipPath><clipPath id="c3d3ff8b5c"><path d="M 359.792969 102.203125 L 416.941406 138.125 L 381.023438 195.273438 L 323.875 159.351562 Z M 359.792969 102.203125 " clip-rule="nonzero"/></clipPath><clipPath id="0765157970"><path d="M 359.792969 102.203125 L 416.941406 138.125 L 381.023438 195.273438 L 323.875 159.351562 Z M 359.792969 102.203125 " clip-rule="nonzero"/></clipPath><clipPath id="aa93efbb87"><path d="M 353 153 L 372 153 L 372 173 L 353 173 Z M 353 153 " clip-rule="nonzero"/></clipPath><clipPath id="9315afa149"><path d="M 359.792969 102.203125 L 416.941406 138.125 L 381.023438 195.273438 L 323.875 159.351562 Z M 359.792969 102.203125 " clip-rule="nonzero"/></clipPath><clipPath id="5cf6f65149"><path d="M 359.792969 102.203125 L 416.941406 138.125 L 381.023438 195.273438 L 323.875 159.351562 Z M 359.792969 102.203125 " clip-rule="nonzero"/></clipPath><clipPath id="787df4427a"><path d="M 359.792969 102.203125 L 416.941406 138.125 L 381.023438 195.273438 L 323.875 159.351562 Z M 359.792969 102.203125 " clip-rule="nonzero"/></clipPath><clipPath id="0a8555bfb4"><path d="M 364 136 L 383 136 L 383 152 L 364 152 Z M 364 136 " clip-rule="nonzero"/></clipPath><clipPath id="39777c545b"><path d="M 359.792969 102.203125 L 416.941406 138.125 L 381.023438 195.273438 L 323.875 159.351562 Z M 359.792969 102.203125 " clip-rule="nonzero"/></clipPath><clipPath id="6cddf83587"><path d="M 359.792969 102.203125 L 416.941406 138.125 L 381.023438 195.273438 L 323.875 159.351562 Z M 359.792969 102.203125 " clip-rule="nonzero"/></clipPath><clipPath id="50e8d1ae3c"><path d="M 359.792969 102.203125 L 416.941406 138.125 L 381.023438 195.273438 L 323.875 159.351562 Z M 359.792969 102.203125 " clip-rule="nonzero"/></clipPath><clipPath id="e3b4203510"><path d="M 370 130 L 378 130 L 378 137 L 370 137 Z M 370 130 " clip-rule="nonzero"/></clipPath><clipPath id="8521f827a2"><path d="M 359.792969 102.203125 L 416.941406 138.125 L 381.023438 195.273438 L 323.875 159.351562 Z M 359.792969 102.203125 " clip-rule="nonzero"/></clipPath><clipPath id="236097fab3"><path d="M 359.792969 102.203125 L 416.941406 138.125 L 381.023438 195.273438 L 323.875 159.351562 Z M 359.792969 102.203125 " clip-rule="nonzero"/></clipPath><clipPath id="2765786d85"><path d="M 359.792969 102.203125 L 416.941406 138.125 L 381.023438 195.273438 L 323.875 159.351562 Z M 359.792969 102.203125 " clip-rule="nonzero"/></clipPath><clipPath id="18fa27b288"><path d="M 363 122 L 392 122 L 392 149 L 363 149 Z M 363 122 " clip-rule="nonzero"/></clipPath><clipPath id="25d41476e5"><path d="M 359.792969 102.203125 L 416.941406 138.125 L 381.023438 195.273438 L 323.875 159.351562 Z M 359.792969 102.203125 " clip-rule="nonzero"/></clipPath><clipPath id="52f0ae7e3f"><path d="M 359.792969 102.203125 L 416.941406 138.125 L 381.023438 195.273438 L 323.875 159.351562 Z M 359.792969 102.203125 " clip-rule="nonzero"/></clipPath><clipPath id="0a8adbb777"><path d="M 359.792969 102.203125 L 416.941406 138.125 L 381.023438 195.273438 L 323.875 159.351562 Z M 359.792969 102.203125 " clip-rule="nonzero"/></clipPath></defs><g clip-path="url(#d08e87a5c5)"><g clip-path="url(#ffe65606db)"><g clip-path="url(#aab78880f3)"><g clip-path="url(#60734e0072)"><g clip-path="url(#86453cf13c)"><path fill="#8c52ff" d="M 343.441406 257.855469 C 346.820312 260.011719 350.804688 260.753906 354.71875 259.90625 C 358.632812 259.0625 361.976562 256.738281 364.152344 253.378906 L 437.707031 139.253906 C 439.882812 135.875 440.605469 131.871094 439.777344 127.957031 C 438.914062 124.042969 436.609375 120.699219 433.230469 118.523438 L 368.886719 77.070312 C 365.53125 74.894531 361.507812 74.152344 357.609375 75.015625 C 353.695312 75.863281 350.351562 78.167969 348.175781 81.542969 L 338.515625 96.527344 L 333.273438 197.664062 C 332.710938 208.503906 323.449219 216.871094 312.605469 216.308594 L 276.796875 214.453125 C 277.523438 215.15625 278.25 215.84375 279.101562 216.382812 L 343.441406 257.855469 " fill-opacity="1" fill-rule="nonzero"/></g></g></g></g></g><g clip-path="url(#654cb33fa5)"><g clip-path="url(#f2cb154f5a)"><g clip-path="url(#d1112f2f18)"><path fill="#8c52ff" d="M 222.191406 191.90625 C 221.761719 200.160156 228.128906 207.21875 236.382812 207.648438 L 312.832031 211.609375 C 321.085938 212.039062 328.148438 205.671875 328.574219 197.417969 L 335.601562 61.804688 C 336.03125 53.570312 329.664062 46.507812 321.410156 46.082031 L 244.960938 42.121094 C 236.707031 41.691406 229.648438 48.058594 229.21875 56.292969 L 222.191406 191.90625 " fill-opacity="1" fill-rule="nonzero"/></g></g></g><g clip-path="url(#c590a51fb6)"><g clip-path="url(#5cf7137ecc)"><g clip-path="url(#0fd85b9d22)"><g clip-path="url(#97741548f8)"><g clip-path="url(#c8ff2cf5a5)"><path fill="#8c52ff" d="M 242.039062 202.886719 C 245.929688 201.925781 249.214844 199.550781 251.300781 196.132812 C 253.390625 192.714844 254.011719 188.691406 253.078125 184.796875 L 221.140625 52.835938 C 220.195312 48.929688 217.792969 45.644531 214.386719 43.542969 C 210.957031 41.472656 206.945312 40.835938 203.039062 41.78125 L 128.648438 59.796875 C 124.757812 60.730469 121.445312 63.132812 119.386719 66.550781 C 117.300781 69.96875 116.664062 73.980469 117.609375 77.882812 L 121.796875 95.214844 L 191.429688 168.746094 C 198.894531 176.628906 198.566406 189.105469 190.6875 196.570312 L 164.648438 221.226562 C 165.660156 221.183594 166.660156 221.132812 167.636719 220.886719 L 242.039062 202.886719 " fill-opacity="1" fill-rule="nonzero"/></g></g></g></g></g><g clip-path="url(#ac7c851799)"><g clip-path="url(#26608347ca)"><g clip-path="url(#ec74646f1e)"><path fill="#8c52ff" d="M 110.667969 245.226562 C 116.351562 251.226562 125.851562 251.488281 131.855469 245.804688 L 187.4375 193.167969 C 193.441406 187.484375 193.699219 177.980469 188.015625 171.980469 L 94.644531 73.378906 C 88.976562 67.390625 79.472656 67.132812 73.472656 72.816406 L 17.886719 125.453125 C 11.886719 131.136719 11.625 140.640625 17.296875 146.625 L 110.667969 245.226562 " fill-opacity="1" fill-rule="nonzero"/></g></g></g><g clip-path="url(#581c31871a)"><g clip-path="url(#87c161a675)"><g clip-path="url(#878cc84092)"><g clip-path="url(#cd1e0bf377)"><path fill="#43a047" d="M 283.214844 126.082031 L 269.46875 125.707031 C 269.46875 125.707031 254.277344 128.023438 253.863281 143.164062 L 297.847656 144.359375 C 298.257812 129.273438 283.214844 126.082031 283.214844 126.082031 " fill-opacity="1" fill-rule="nonzero"/></g></g></g></g><g clip-path="url(#585039cd15)"><g clip-path="url(#a416f8a636)"><g clip-path="url(#8953ded9ec)"><g clip-path="url(#233c7ede16)"><path fill="#66bb6a" d="M 263.859375 135.179688 C 263.859375 135.179688 268.074219 132.023438 272.183594 132.65625 L 271.105469 121.625 C 271.105469 121.625 266.097656 123.601562 263.859375 135.179688 Z M 263.859375 135.179688 " fill-opacity="1" fill-rule="nonzero"/></g></g></g></g><g clip-path="url(#0a43671969)"><g clip-path="url(#5b9ed8889c)"><g clip-path="url(#eccc6df3ee)"><g clip-path="url(#a6e3f742cc)"><path fill="#66bb6a" d="M 288.601562 135.855469 C 288.601562 135.855469 284.566406 132.472656 280.429688 132.882812 L 282.101562 121.921875 C 282.101562 121.921875 286.996094 124.171875 288.601562 135.855469 Z M 288.601562 135.855469 " fill-opacity="1" fill-rule="nonzero"/></g></g></g></g><g clip-path="url(#2cbe4601e2)"><g clip-path="url(#65cc8e4933)"><g clip-path="url(#582cafe504)"><g clip-path="url(#fdcfda28f2)"><path fill="#e53935" d="M 287.265625 93.039062 C 285.746094 89.175781 288.574219 86.335938 288.722656 80.839844 C 288.722656 80.839844 292.699219 86.449219 292.546875 91.945312 C 292.398438 97.445312 290.292969 98.761719 290.292969 98.761719 L 286.976562 94.546875 C 286.976562 94.546875 287.421875 93.433594 287.265625 93.039062 Z M 287.265625 93.039062 " fill-opacity="1" fill-rule="nonzero"/></g></g></g></g><g clip-path="url(#d80cef3e16)"><g clip-path="url(#6234795c5d)"><g clip-path="url(#ee88854f38)"><g clip-path="url(#221f44f6c8)"><path fill="#ff9800" d="M 269.84375 117.460938 L 269.621094 125.710938 C 269.621094 125.710938 270.957031 132.625 276.15625 138.265625 C 281.953125 132.921875 283.363281 126.085938 283.363281 126.085938 L 283.589844 117.835938 Z M 269.84375 117.460938 " fill-opacity="1" fill-rule="nonzero"/></g></g></g></g><g clip-path="url(#629f5aded6)"><g clip-path="url(#75c00d8320)"><g clip-path="url(#f3088f0327)"><g clip-path="url(#4acac84fa3)"><path fill="#ffa726" d="M 291.910156 109.8125 C 291.871094 111.328125 290.605469 112.527344 289.085938 112.484375 C 287.570312 112.445312 286.371094 111.179688 286.414062 109.660156 C 286.453125 108.140625 287.71875 106.945312 289.238281 106.988281 C 290.753906 107.027344 291.953125 108.292969 291.910156 109.8125 " fill-opacity="1" fill-rule="nonzero"/></g></g></g></g><g clip-path="url(#c3ad76d12d)"><g clip-path="url(#a75d3a8aad)"><g clip-path="url(#57b00fdd8c)"><g clip-path="url(#7a51571e96)"><path fill="#ffa726" d="M 267.171875 109.136719 C 267.210938 107.617188 266.015625 106.355469 264.496094 106.3125 C 262.976562 106.273438 261.714844 107.46875 261.671875 108.988281 C 261.632812 110.507812 262.828125 111.769531 264.347656 111.8125 C 265.863281 111.851562 267.128906 110.65625 267.171875 109.136719 " fill-opacity="1" fill-rule="nonzero"/></g></g></g></g><g clip-path="url(#a53163489c)"><g clip-path="url(#40407fbc26)"><g clip-path="url(#f91063101f)"><g clip-path="url(#9c06623075)"><path fill="#ffb74d" d="M 289.386719 101.488281 C 289.671875 90.996094 264.832031 93.984375 264.644531 100.816406 L 264.382812 110.4375 C 264.199219 117.269531 269.582031 122.957031 276.417969 123.144531 C 283.25 123.328125 288.9375 117.941406 289.125 111.109375 Z M 289.386719 101.488281 " fill-opacity="1" fill-rule="nonzero"/></g></g></g></g><g clip-path="url(#32272541bd)"><g clip-path="url(#0389b32dce)"><g clip-path="url(#7addb27ff1)"><g clip-path="url(#a9545d9d95)"><path fill="#e65100" d="M 277.355469 88.78125 C 269.003906 88.554688 263.425781 95.179688 263.195312 103.527344 L 263.113281 106.667969 L 265.796875 109.097656 L 265.984375 102.226562 L 276.886719 105.933594 L 287.976562 102.824219 L 287.789062 109.699219 L 290.601562 107.378906 L 290.6875 104.277344 C 290.835938 98.742188 289.558594 93.21875 282.777344 91.679688 L 281.476562 88.894531 Z M 277.355469 88.78125 " fill-opacity="1" fill-rule="nonzero"/></g></g></g></g><g clip-path="url(#cd1baeffdf)"><g clip-path="url(#c02b667263)"><g clip-path="url(#7bd84bfb13)"><g clip-path="url(#63291fab90)"><path fill="#784719" d="M 280.914062 109.511719 C 280.9375 108.753906 281.570312 108.152344 282.328125 108.175781 C 283.085938 108.195312 283.683594 108.828125 283.664062 109.585938 C 283.644531 110.34375 283.011719 110.945312 282.253906 110.921875 C 281.492188 110.902344 280.894531 110.269531 280.914062 109.511719 " fill-opacity="1" fill-rule="nonzero"/></g></g></g></g><g clip-path="url(#c099380734)"><g clip-path="url(#2250bd0e61)"><g clip-path="url(#46a62ee78b)"><g clip-path="url(#d2fec96fbc)"><path fill="#784719" d="M 269.917969 109.210938 C 269.898438 109.96875 270.5 110.601562 271.257812 110.625 C 272.015625 110.644531 272.648438 110.042969 272.667969 109.285156 C 272.6875 108.53125 272.089844 107.894531 271.332031 107.875 C 270.574219 107.855469 269.941406 108.453125 269.917969 109.210938 " fill-opacity="1" fill-rule="nonzero"/></g></g></g></g><g clip-path="url(#ef8f8a5980)"><g clip-path="url(#ec553f7658)"><g clip-path="url(#f82354febd)"><g clip-path="url(#f22fcbd699)"><path fill="#43a047" d="M 277.617188 84.664062 C 277.617188 84.664062 268.160156 88.203125 264.191406 98.050781 L 277.167969 101.15625 L 290.292969 98.761719 C 286.863281 88.710938 277.617188 84.664062 277.617188 84.664062 Z M 277.617188 84.664062 " fill-opacity="1" fill-rule="nonzero"/></g></g></g></g><g clip-path="url(#dd81bb7fe2)"><g clip-path="url(#f740e5ae68)"><g clip-path="url(#4baf1465ae)"><g clip-path="url(#e4041acca4)"><path fill="#f44336" d="M 172.824219 124.199219 C 172.734375 124.132812 168.976562 122.417969 168.011719 118.664062 C 166.867188 114.226562 169.867188 100.113281 181.746094 97.050781 C 193.496094 94.023438 202.882812 104.972656 204.019531 109.378906 C 205.058594 113.402344 202.601562 116.3125 202.480469 116.554688 L 200.363281 117.101562 C 200.363281 117.101562 199.351562 106.066406 184.921875 109.785156 C 170.492188 113.507812 174.945312 123.652344 174.945312 123.652344 Z M 172.824219 124.199219 " fill-opacity="1" fill-rule="nonzero"/></g></g></g></g><g clip-path="url(#71dc4dbe2f)"><g clip-path="url(#fa9d89eedd)"><g clip-path="url(#49f83d5545)"><g clip-path="url(#2bd284d030)"><path fill="#ffa726" d="M 176.789062 133.34375 C 176.695312 133.367188 176.597656 133.390625 176.5 133.414062 L 176.339844 133.453125 C 173.664062 134.144531 170.066406 131.027344 169.132812 127.40625 C 168.417969 124.625 169.640625 122.757812 171.21875 122.351562 C 172.46875 122.027344 174.609375 122.125 176.53125 123.464844 L 176.90625 123.726562 L 178.363281 132.648438 L 177.683594 133.027344 C 177.449219 133.15625 177.148438 133.25 176.789062 133.34375 Z M 202.496094 126.628906 L 201.71875 126.628906 L 198.679688 118.113281 L 198.878906 117.703125 C 199.914062 115.605469 201.742188 114.480469 202.992188 114.160156 C 204.570312 113.753906 206.542969 114.796875 207.261719 117.578125 C 208.195312 121.199219 206.554688 125.667969 203.878906 126.355469 L 203.722656 126.398438 C 203.621094 126.425781 203.527344 126.449219 203.433594 126.472656 C 203.074219 126.566406 202.761719 126.632812 202.496094 126.628906 Z M 202.496094 126.628906 " fill-opacity="1" fill-rule="nonzero"/></g></g></g></g><g clip-path="url(#1f2d1dcc58)"><g clip-path="url(#8b09ea715b)"><g clip-path="url(#eb262eb2be)"><g clip-path="url(#b220b964d9)"><path fill="#f57f17" d="M 175.898438 127.359375 C 176.125 128.238281 175.597656 129.132812 174.71875 129.359375 C 173.84375 129.585938 172.949219 129.058594 172.722656 128.179688 C 172.496094 127.304688 173.023438 126.40625 173.902344 126.179688 C 174.777344 125.957031 175.671875 126.484375 175.898438 127.359375 Z M 201.320312 120.808594 C 201.542969 121.683594 202.441406 122.210938 203.316406 121.984375 C 204.195312 121.761719 204.722656 120.863281 204.496094 119.988281 C 204.269531 119.109375 203.375 118.582031 202.496094 118.808594 C 201.621094 119.035156 201.09375 119.929688 201.320312 120.808594 Z M 201.320312 120.808594 " fill-opacity="1" fill-rule="nonzero"/></g></g></g></g><g clip-path="url(#44c83744ae)"><g clip-path="url(#eab5506069)"><g clip-path="url(#bc4dbff01c)"><g clip-path="url(#25a2cd61ff)"><path fill="#ffffff" d="M 182.464844 100.253906 C 182.117188 100.34375 181.78125 100.464844 181.457031 100.621094 C 181.132812 100.777344 180.828125 100.964844 180.542969 101.179688 C 180.253906 101.394531 179.992188 101.636719 179.753906 101.90625 C 179.515625 102.171875 179.304688 102.460938 179.121094 102.769531 C 178.9375 103.078125 178.789062 103.402344 178.667969 103.742188 C 178.550781 104.082031 178.464844 104.429688 178.414062 104.785156 C 178.367188 105.140625 178.351562 105.496094 178.371094 105.855469 C 178.390625 106.214844 178.445312 106.566406 178.535156 106.914062 C 178.625 107.261719 178.746094 107.597656 178.902344 107.921875 C 179.058594 108.246094 179.246094 108.550781 179.460938 108.835938 C 179.675781 109.125 179.917969 109.386719 180.1875 109.625 C 180.453125 109.867188 180.742188 110.078125 181.050781 110.257812 C 181.359375 110.441406 181.683594 110.59375 182.023438 110.710938 C 182.363281 110.828125 182.710938 110.914062 183.066406 110.964844 C 183.421875 111.015625 183.777344 111.03125 184.136719 111.007812 C 184.496094 110.988281 184.847656 110.933594 185.195312 110.84375 C 185.542969 110.753906 185.878906 110.632812 186.203125 110.476562 C 186.527344 110.320312 186.832031 110.136719 187.117188 109.917969 C 187.40625 109.703125 187.667969 109.460938 187.90625 109.195312 C 188.148438 108.925781 188.359375 108.636719 188.539062 108.328125 C 188.722656 108.019531 188.875 107.695312 188.992188 107.355469 C 189.109375 107.015625 189.195312 106.671875 189.246094 106.316406 C 189.296875 105.960938 189.3125 105.601562 189.289062 105.242188 C 189.269531 104.886719 189.214844 104.53125 189.125 104.183594 C 189.035156 103.835938 188.914062 103.5 188.757812 103.175781 C 188.601562 102.855469 188.417969 102.546875 188.199219 102.261719 C 187.984375 101.972656 187.742188 101.710938 187.476562 101.472656 C 187.207031 101.234375 186.917969 101.023438 186.609375 100.839844 C 186.300781 100.65625 185.976562 100.507812 185.636719 100.386719 C 185.296875 100.269531 184.949219 100.183594 184.59375 100.132812 C 184.238281 100.085938 183.882812 100.070312 183.523438 100.089844 C 183.164062 100.109375 182.8125 100.164062 182.464844 100.253906 Z M 182.464844 100.253906 " fill-opacity="1" fill-rule="nonzero"/></g></g></g></g><g clip-path="url(#e458c96e5b)"><g clip-path="url(#5a4819117f)"><g clip-path="url(#27de3fb62a)"><g clip-path="url(#64afb0db35)"><path fill="#f44336" d="M 181.359375 107.242188 C 181.359375 107.242188 179.695312 106.878906 179.628906 106.78125 C 179.566406 106.683594 180.988281 101.800781 180.988281 101.800781 L 183.15625 103.011719 L 184.539062 100.847656 L 188.101562 104.597656 L 186.832031 105.90625 L 184.722656 102.683594 L 183.679688 104.722656 L 181.617188 103.449219 Z M 181.359375 107.242188 " fill-opacity="1" fill-rule="nonzero"/></g></g></g></g><g clip-path="url(#8e80cc5399)"><g clip-path="url(#1cd3ed7b63)"><g clip-path="url(#1761a72032)"><g clip-path="url(#e6be76e88e)"><path fill="#ffb74d" d="M 192.570312 139.441406 C 189.679688 140.183594 188.050781 139.699219 186.476562 139.226562 C 186.054688 139.101562 185.621094 138.96875 185.140625 138.859375 C 184.882812 138.796875 184.574219 138.746094 184.234375 138.691406 C 181.796875 138.273438 177.28125 137.09375 175.796875 131.339844 C 175.492188 130.164062 175.308594 128.703125 175.164062 127.054688 C 175.066406 125.90625 175.0625 124.113281 174.945312 123.652344 C 174.75 122.894531 173.386719 119.777344 172.519531 118.632812 C 172.519531 118.632812 174.773438 112.402344 184.921875 109.785156 C 195.070312 107.167969 198.996094 111.804688 198.996094 111.804688 L 200.054688 111.53125 C 199.851562 112.953125 200.167969 116.339844 200.363281 117.101562 C 200.480469 117.558594 201.34375 119.128906 201.8125 120.183594 C 202.484375 121.695312 203.03125 123.0625 203.332031 124.242188 C 204.816406 129.992188 201.433594 133.210938 199.496094 134.753906 C 199.230469 134.96875 198.984375 135.164062 198.789062 135.339844 C 198.421875 135.667969 198.101562 135.996094 197.796875 136.308594 C 196.644531 137.480469 195.453125 138.695312 192.570312 139.441406 Z M 192.570312 139.441406 " fill-opacity="1" fill-rule="nonzero"/></g></g></g></g><g clip-path="url(#21c232a621)"><g clip-path="url(#aea6693c7f)"><g clip-path="url(#ccb215fe10)"><g clip-path="url(#5032fdcb43)"><path fill="#ffffff" d="M 192.402344 116.894531 C 193.574219 116.589844 194.828125 117.53125 195.203125 118.996094 C 195.582031 120.457031 194.9375 121.886719 193.769531 122.1875 C 192.597656 122.492188 191.34375 121.550781 190.96875 120.085938 C 190.589844 118.625 191.234375 117.195312 192.402344 116.894531 Z M 184.613281 121.726562 C 184.988281 123.1875 184.347656 124.617188 183.175781 124.917969 C 182.007812 125.222656 180.753906 124.28125 180.375 122.816406 C 180 121.355469 180.640625 119.925781 181.8125 119.625 C 182.980469 119.324219 184.234375 120.261719 184.613281 121.726562 Z M 184.613281 121.726562 " fill-opacity="1" fill-rule="nonzero"/></g></g></g></g><g clip-path="url(#cbb07f4b16)"><g clip-path="url(#bcf6765ffa)"><g clip-path="url(#123904a472)"><g clip-path="url(#f9338b5682)"><path fill="#2196f3" d="M 192.144531 118.089844 C 193.023438 117.863281 193.980469 118.628906 194.28125 119.796875 C 194.582031 120.96875 194.117188 122.097656 193.238281 122.324219 C 192.363281 122.550781 191.40625 121.789062 191.105469 120.617188 C 190.800781 119.445312 191.269531 118.316406 192.144531 118.089844 Z M 184.75 122.253906 C 185.050781 123.425781 184.582031 124.558594 183.707031 124.78125 C 182.828125 125.007812 181.875 124.246094 181.570312 123.074219 C 181.269531 121.902344 181.738281 120.773438 182.613281 120.546875 C 183.492188 120.320312 184.449219 121.085938 184.75 122.253906 Z M 184.75 122.253906 " fill-opacity="1" fill-rule="nonzero"/></g></g></g></g><g clip-path="url(#13a21a7fbb)"><g clip-path="url(#8de9974b61)"><g clip-path="url(#8e92eb7a27)"><g clip-path="url(#828e6fd232)"><path fill="#263238" d="M 191.890625 119.285156 C 192.472656 119.132812 193.132812 119.722656 193.359375 120.601562 C 193.585938 121.476562 193.292969 122.3125 192.710938 122.460938 C 192.125 122.613281 191.464844 122.023438 191.242188 121.148438 C 191.015625 120.269531 191.304688 119.433594 191.890625 119.285156 Z M 184.886719 122.785156 C 185.113281 123.660156 184.820312 124.496094 184.234375 124.648438 C 183.652344 124.796875 182.992188 124.207031 182.765625 123.332031 C 182.542969 122.453125 182.832031 121.621094 183.417969 121.46875 C 184 121.320312 184.660156 121.90625 184.886719 122.785156 Z M 196.367188 114.742188 C 196.367188 114.742188 195.65625 114.648438 194.792969 114.5 C 194.355469 114.445312 193.875 114.375 193.460938 114.386719 C 193.261719 114.398438 193.074219 114.417969 192.953125 114.46875 L 192.917969 114.480469 L 192.914062 114.480469 C 192.949219 114.46875 192.828125 114.503906 192.992188 114.457031 L 192.980469 114.460938 L 192.875 114.503906 L 192.664062 114.585938 C 192.5 114.640625 192.523438 114.683594 192.4375 114.710938 C 192.289062 114.792969 192.089844 114.933594 191.910156 115.070312 C 191.730469 115.21875 191.550781 115.378906 191.367188 115.546875 C 191.011719 115.886719 190.667969 116.253906 190.351562 116.574219 C 189.738281 117.230469 189.226562 117.710938 189.226562 117.710938 C 189.226562 117.710938 189.042969 117.015625 189.238281 116.027344 C 189.324219 115.53125 189.503906 114.964844 189.832031 114.390625 C 189.992188 114.101562 190.203125 113.816406 190.449219 113.546875 C 190.707031 113.273438 190.984375 113.03125 191.363281 112.808594 C 191.550781 112.707031 191.828125 112.566406 191.953125 112.53125 L 192.167969 112.464844 L 192.277344 112.433594 L 192.292969 112.429688 L 192.378906 112.402344 L 192.394531 112.402344 L 192.4375 112.394531 L 192.523438 112.382812 C 192.992188 112.292969 193.40625 112.367188 193.769531 112.453125 C 194.480469 112.65625 194.996094 113.007812 195.371094 113.363281 C 196.128906 114.054688 196.367188 114.742188 196.367188 114.742188 Z M 184.789062 118.398438 C 184.644531 118.148438 184.421875 117.808594 184.09375 117.4375 C 183.9375 117.246094 183.742188 117.066406 183.527344 116.875 C 183.3125 116.679688 183.070312 116.492188 182.792969 116.320312 C 182.246094 115.980469 181.566406 115.671875 180.761719 115.613281 C 180.34375 115.578125 179.984375 115.609375 179.492188 115.730469 L 179.265625 115.800781 C 179.148438 115.851562 179.03125 115.90625 178.917969 115.964844 C 178.695312 116.089844 178.566406 116.195312 178.40625 116.316406 C 177.839844 116.820312 177.546875 117.390625 177.386719 117.886719 C 177.230469 118.390625 177.199219 118.828125 177.222656 119.148438 C 177.238281 119.464844 177.300781 119.65625 177.300781 119.65625 C 177.300781 119.65625 177.484375 119.570312 177.738281 119.40625 C 178 119.25 178.328125 119.015625 178.683594 118.765625 C 179.035156 118.511719 179.410156 118.230469 179.734375 118.019531 C 179.808594 117.976562 179.910156 117.902344 179.949219 117.890625 C 179.964844 117.882812 179.980469 117.867188 179.992188 117.851562 L 180.191406 117.773438 C 180.273438 117.726562 180.523438 117.683594 180.710938 117.660156 C 181.558594 117.589844 182.695312 117.945312 183.523438 118.25 C 184.363281 118.566406 184.988281 118.804688 184.988281 118.804688 C 184.988281 118.804688 184.921875 118.65625 184.789062 118.398438 Z M 200.273438 125.523438 C 200.628906 126.894531 199.765625 128.253906 198.902344 128.476562 C 199.0625 130.199219 198.191406 131.175781 197.132812 131.449219 C 196.070312 131.722656 195.417969 131.492188 195.417969 131.492188 C 195.417969 131.492188 194.710938 133.203125 193.308594 133.5625 C 192.074219 133.882812 191.007812 133.488281 191.007812 133.488281 C 191.007812 133.488281 190.359375 134.363281 189.203125 134.660156 C 187.710938 135.046875 186.378906 133.925781 186.226562 133.835938 C 186.164062 133.886719 185.710938 134.398438 184.773438 134.640625 C 182.601562 135.199219 181.769531 132.921875 181.769531 132.921875 C 181.769531 132.921875 179.695312 133.324219 179.070312 130.910156 C 178.542969 128.863281 179.066406 128.238281 179.066406 128.238281 C 179.066406 128.238281 179.820312 129.644531 184.136719 129.300781 C 185.160156 131.214844 187.808594 132.179688 190.515625 131.480469 C 193.214844 130.785156 195.066406 128.667969 195.042969 126.496094 C 197.148438 125.550781 198.449219 124.484375 198.996094 123.125 C 199 123.125 199.742188 123.464844 200.273438 125.523438 Z M 200.273438 125.523438 " fill-opacity="1" fill-rule="nonzero"/></g></g></g></g><g clip-path="url(#3776923197)"><g clip-path="url(#45d736bfff)"><g clip-path="url(#a9e8851e51)"><g clip-path="url(#6f1f9ea459)"><path fill="#ffd49c" d="M 190.65625 132.027344 C 187.152344 132.929688 183.691406 131.289062 182.9375 128.371094 C 182.183594 125.449219 184.421875 122.339844 187.925781 121.4375 C 191.429688 120.53125 194.894531 122.171875 195.644531 125.09375 C 196.398438 128.011719 194.160156 131.125 190.65625 132.027344 Z M 190.65625 132.027344 " fill-opacity="1" fill-rule="nonzero"/></g></g></g></g><g clip-path="url(#1278008cf5)"><g clip-path="url(#7c030459e5)"><g clip-path="url(#4744244b39)"><g clip-path="url(#e9984c9c52)"><path fill="#795548" d="M 200.328125 112.589844 C 200.328125 112.589844 202.667969 122.1875 202.972656 123.074219 C 200.828125 120.210938 198.789062 119.765625 198.789062 119.765625 L 197.152344 113.410156 Z M 172.792969 119.691406 C 172.792969 119.691406 175.382812 129.222656 175.546875 130.148438 C 176.042969 126.605469 177.609375 125.226562 177.609375 125.226562 L 175.96875 118.871094 Z M 172.792969 119.691406 " fill-opacity="1" fill-rule="nonzero"/></g></g></g></g><g clip-path="url(#6ae689115a)"><g clip-path="url(#7aa1de08ac)"><g clip-path="url(#ffe314b13a)"><g clip-path="url(#0c63d088b5)"><path fill="#ff8a80" d="M 184.105469 106.609375 C 172.445312 109.613281 170.929688 116.851562 171.1875 117.84375 C 171.683594 119.777344 173.066406 120.75 173.066406 120.75 C 175.285156 122.789062 176.242188 119.929688 176.242188 119.929688 C 176.277344 119.875 178.484375 114.835938 185.742188 112.964844 C 193 111.089844 197.367188 114.4375 197.425781 114.46875 C 197.425781 114.46875 199.644531 116.507812 200.601562 113.648438 C 200.601562 113.648438 201.339844 112.132812 200.84375 110.199219 C 200.585938 109.203125 195.761719 103.601562 184.105469 106.609375 Z M 184.105469 106.609375 " fill-opacity="1" fill-rule="nonzero"/></g></g></g></g><g clip-path="url(#943721c742)"><g clip-path="url(#14ccb6320d)"><g clip-path="url(#36623376db)"><g clip-path="url(#67528ae28c)"><path fill="#795548" d="M 111.847656 142.816406 C 106.703125 138.082031 105.785156 140.4375 101.292969 133.59375 C 100.109375 136.367188 101.402344 142.105469 97.90625 145.414062 L 89.171875 153.6875 C 85.675781 156.996094 80.019531 155.394531 77.179688 156.425781 C 83.691406 161.199219 81.457031 161.988281 85.816406 167.46875 C 86.058594 167.902344 86.308594 168.164062 86.640625 168.511719 L 91.1875 173.316406 C 95.988281 178.382812 102.222656 174.46875 102.222656 174.46875 C 102.222656 174.46875 105.667969 172.859375 110.910156 167.898438 C 116.152344 162.933594 117.945312 159.578125 117.945312 159.578125 C 117.945312 159.578125 122.441406 153.828125 117.398438 148.5 L 112.847656 143.695312 C 112.515625 143.34375 112.269531 143.082031 111.847656 142.816406 Z M 111.847656 142.816406 " fill-opacity="1" fill-rule="nonzero"/></g></g></g></g><g clip-path="url(#51842b4e18)"><g clip-path="url(#8c7fbbfef1)"><g clip-path="url(#21320289f5)"><g clip-path="url(#0aae9c9c54)"><path fill="#ffffff" d="M 89.597656 156.761719 C 92.742188 153.785156 97.507812 153.746094 100.238281 156.628906 C 102.96875 159.511719 102.667969 164.269531 99.523438 167.246094 C 96.378906 170.222656 91.613281 170.265625 88.882812 167.382812 C 86.152344 164.5 86.539062 159.660156 89.597656 156.761719 Z M 100.707031 167.617188 C 103.1875 170.238281 108.027344 170.625 110.910156 167.898438 C 113.792969 165.167969 113.671875 160.3125 111.1875 157.691406 C 111.1875 157.691406 108.003906 159.050781 105.121094 161.78125 C 102.238281 164.511719 100.707031 167.617188 100.707031 167.617188 Z M 100.707031 167.617188 " fill-opacity="1" fill-rule="nonzero"/></g></g></g></g><g clip-path="url(#c3eb99a53e)"><g clip-path="url(#019e8812d3)"><g clip-path="url(#0898c46a10)"><g clip-path="url(#3d8a4b49ec)"><path fill="#ff9e80" d="M 107.886719 122.707031 C 103.695312 126.679688 101.882812 130.714844 101.105469 134.269531 C 101.195312 134.015625 101.199219 133.84375 101.292969 133.59375 C 105.703125 140.351562 106.613281 138.164062 111.847656 142.816406 C 112.269531 143.082031 112.515625 143.34375 112.847656 143.695312 L 114.085938 145.003906 C 122.089844 135.605469 110.652344 130.527344 109.402344 129.558594 C 108.234375 128.675781 106.558594 127.777344 107.886719 122.707031 Z M 77.4375 156.347656 C 73.929688 157.015625 69.972656 158.613281 65.953125 162.417969 C 71.175781 161.28125 71.980469 163.007812 72.710938 164.304688 C 73.53125 165.515625 77.890625 177.292969 87.878906 169.824219 L 86.640625 168.511719 C 86.308594 168.164062 86.058594 167.902344 85.816406 167.46875 C 81.367188 162.070312 83.773438 161.285156 77.179688 156.425781 C 77.265625 156.511719 77.351562 156.429688 77.4375 156.347656 Z M 102.089844 148.082031 C 101.859375 148.300781 101.652344 148.535156 101.460938 148.785156 C 101.273438 149.039062 101.109375 149.304688 100.972656 149.582031 C 100.832031 149.859375 100.71875 150.144531 100.632812 150.4375 C 100.546875 150.730469 100.492188 151.023438 100.464844 151.316406 C 100.4375 151.613281 100.4375 151.90625 100.46875 152.195312 C 100.5 152.480469 100.558594 152.757812 100.644531 153.027344 C 100.734375 153.296875 100.847656 153.550781 100.988281 153.789062 C 101.132812 154.03125 101.296875 154.25 101.488281 154.449219 C 101.679688 154.652344 101.890625 154.828125 102.121094 154.984375 C 102.351562 155.140625 102.597656 155.265625 102.863281 155.371094 C 103.125 155.472656 103.402344 155.546875 103.6875 155.59375 C 103.972656 155.636719 104.261719 155.65625 104.558594 155.644531 C 104.855469 155.632812 105.152344 155.589844 105.449219 155.523438 C 105.746094 155.453125 106.039062 155.355469 106.320312 155.230469 C 106.605469 155.109375 106.878906 154.957031 107.140625 154.785156 C 107.40625 154.609375 107.652344 154.414062 107.878906 154.199219 C 108.109375 153.980469 108.320312 153.746094 108.507812 153.492188 C 108.695312 153.242188 108.859375 152.976562 108.996094 152.699219 C 109.136719 152.421875 109.25 152.136719 109.335938 151.84375 C 109.421875 151.550781 109.476562 151.257812 109.503906 150.960938 C 109.53125 150.664062 109.53125 150.375 109.5 150.085938 C 109.46875 149.796875 109.410156 149.519531 109.324219 149.25 C 109.234375 148.980469 109.121094 148.726562 108.980469 148.488281 C 108.835938 148.25 108.671875 148.027344 108.480469 147.828125 C 108.292969 147.628906 108.082031 147.449219 107.847656 147.296875 C 107.617188 147.140625 107.371094 147.011719 107.105469 146.910156 C 106.84375 146.808594 106.566406 146.734375 106.28125 146.6875 C 105.996094 146.640625 105.707031 146.625 105.410156 146.636719 C 105.113281 146.648438 104.816406 146.6875 104.519531 146.757812 C 104.222656 146.828125 103.933594 146.921875 103.648438 147.046875 C 103.363281 147.171875 103.089844 147.320312 102.828125 147.496094 C 102.5625 147.667969 102.320312 147.863281 102.089844 148.082031 Z M 91.605469 158.007812 C 91.375 158.226562 91.167969 158.460938 90.980469 158.714844 C 90.792969 158.964844 90.628906 159.230469 90.488281 159.507812 C 90.347656 159.785156 90.234375 160.070312 90.152344 160.363281 C 90.066406 160.65625 90.007812 160.949219 89.980469 161.246094 C 89.953125 161.542969 89.953125 161.832031 89.984375 162.121094 C 90.015625 162.410156 90.074219 162.6875 90.164062 162.957031 C 90.25 163.222656 90.363281 163.476562 90.507812 163.71875 C 90.648438 163.957031 90.816406 164.175781 91.003906 164.378906 C 91.195312 164.578125 91.40625 164.757812 91.636719 164.910156 C 91.867188 165.066406 92.117188 165.195312 92.378906 165.296875 C 92.644531 165.398438 92.917969 165.472656 93.203125 165.519531 C 93.488281 165.566406 93.78125 165.582031 94.078125 165.570312 C 94.375 165.558594 94.671875 165.519531 94.96875 165.449219 C 95.261719 165.378906 95.554688 165.285156 95.839844 165.160156 C 96.125 165.035156 96.398438 164.886719 96.660156 164.710938 C 96.921875 164.539062 97.167969 164.34375 97.398438 164.125 C 97.625 163.90625 97.835938 163.671875 98.023438 163.421875 C 98.210938 163.167969 98.375 162.902344 98.515625 162.625 C 98.65625 162.347656 98.765625 162.0625 98.851562 161.769531 C 98.9375 161.476562 98.992188 161.183594 99.023438 160.886719 C 99.050781 160.59375 99.046875 160.300781 99.019531 160.011719 C 98.988281 159.726562 98.929688 159.445312 98.839844 159.179688 C 98.753906 158.910156 98.636719 158.65625 98.496094 158.414062 C 98.355469 158.175781 98.1875 157.957031 98 157.753906 C 97.808594 157.554688 97.597656 157.375 97.367188 157.222656 C 97.132812 157.066406 96.886719 156.9375 96.625 156.835938 C 96.359375 156.734375 96.085938 156.660156 95.800781 156.613281 C 95.515625 156.566406 95.222656 156.550781 94.925781 156.5625 C 94.628906 156.574219 94.332031 156.613281 94.035156 156.683594 C 93.738281 156.753906 93.449219 156.851562 93.164062 156.972656 C 92.878906 157.097656 92.605469 157.246094 92.34375 157.421875 C 92.082031 157.597656 91.835938 157.792969 91.605469 158.007812 Z M 105.378906 158.554688 C 105.296875 158.46875 105.296875 158.46875 105.210938 158.378906 C 104.304688 157.417969 102.773438 157.378906 101.8125 158.289062 C 100.851562 159.195312 100.808594 160.726562 101.71875 161.6875 C 101.800781 161.777344 101.800781 161.777344 101.882812 161.863281 C 100.207031 164.117188 99.628906 166.484375 100.707031 167.617188 C 102.113281 169.105469 105.546875 168.007812 108.429688 165.277344 C 111.3125 162.546875 112.59375 159.175781 111.1875 157.691406 C 110.113281 156.554688 107.71875 157 105.378906 158.554688 Z M 105.378906 158.554688 " fill-opacity="1" fill-rule="nonzero"/></g></g></g></g><g clip-path="url(#9d1b5a399b)"><g clip-path="url(#c50cc43404)"><g clip-path="url(#a9085f266a)"><g clip-path="url(#952fc60139)"><path fill="#ffffff" d="M 103.742188 149.828125 C 105.664062 148.007812 108.890625 148.265625 108.890625 148.265625 C 108.890625 148.265625 108.972656 151.503906 107.050781 153.324219 C 105.128906 155.144531 101.902344 154.886719 101.902344 154.886719 C 101.902344 154.886719 101.820312 151.648438 103.742188 149.828125 Z M 93.261719 159.757812 C 91.339844 161.578125 91.421875 164.8125 91.421875 164.8125 C 91.421875 164.8125 94.648438 165.070312 96.570312 163.25 C 98.492188 161.429688 98.410156 158.195312 98.410156 158.195312 C 98.410156 158.195312 95.183594 157.9375 93.261719 159.757812 Z M 93.261719 159.757812 " fill-opacity="1" fill-rule="nonzero"/></g></g></g></g><g clip-path="url(#6402a9beb0)"><g clip-path="url(#2e42301fd1)"><g clip-path="url(#3603ddcb9a)"><g clip-path="url(#a7dded4d6b)"><path fill="#4e342e" d="M 107.144531 149.921875 C 108.054688 150.882812 108.011719 152.414062 107.050781 153.324219 C 106.089844 154.234375 104.5625 154.191406 103.652344 153.230469 C 102.742188 152.269531 102.78125 150.738281 103.742188 149.828125 C 104.703125 148.917969 106.234375 148.960938 107.144531 149.921875 Z M 93.167969 163.15625 C 94.078125 164.117188 95.609375 164.160156 96.570312 163.25 C 97.53125 162.339844 97.570312 160.808594 96.664062 159.847656 C 95.753906 158.886719 94.222656 158.847656 93.261719 159.757812 C 92.300781 160.667969 92.257812 162.195312 93.167969 163.15625 Z M 93.167969 163.15625 " fill-opacity="1" fill-rule="nonzero"/></g></g></g></g><g clip-path="url(#4b2984585d)"><g clip-path="url(#816b7df651)"><g clip-path="url(#6ed4eb20b6)"><g clip-path="url(#20ddcbe1ce)"><path fill="#78909c" d="M 371.121094 160.816406 L 359.21875 153.332031 L 347.105469 167.3125 L 363.777344 177.789062 Z M 371.121094 160.816406 " fill-opacity="1" fill-rule="nonzero"/></g></g></g></g><g clip-path="url(#3cfb007c04)"><g clip-path="url(#7b03e88cc1)"><g clip-path="url(#591272bb9e)"><g clip-path="url(#7c849e2793)"><path fill="#ff9800" d="M 360.679688 164.21875 L 359.21875 153.332031 L 363.707031 146.1875 L 375.613281 153.671875 L 371.121094 160.816406 Z M 360.679688 164.21875 " fill-opacity="1" fill-rule="nonzero"/></g></g></g></g><g clip-path="url(#83ca8e4531)"><g clip-path="url(#961036fe30)"><g clip-path="url(#b2684c0041)"><g clip-path="url(#8ba816e4b2)"><path fill="#ffa726" d="M 387.246094 151.019531 C 386.417969 152.332031 384.683594 152.730469 383.367188 151.902344 C 382.050781 151.074219 381.65625 149.339844 382.484375 148.023438 C 383.3125 146.707031 385.046875 146.3125 386.363281 147.140625 C 387.675781 147.964844 388.074219 149.703125 387.246094 151.019531 M 365.816406 137.546875 C 366.644531 136.230469 366.246094 134.496094 364.929688 133.667969 C 363.613281 132.84375 361.878906 133.238281 361.054688 134.554688 C 360.226562 135.871094 360.621094 137.605469 361.9375 138.433594 C 363.253906 139.257812 364.988281 138.863281 365.816406 137.546875 " fill-opacity="1" fill-rule="nonzero"/></g></g></g></g><g clip-path="url(#435950b40d)"><g clip-path="url(#1ffe6d3ba6)"><g clip-path="url(#ccb39f0fab)"><g clip-path="url(#a0d4dcfeac)"><path fill="#ffb74d" d="M 389.355469 142.378906 C 395.070312 133.289062 371.644531 122.988281 367.925781 128.90625 L 362.6875 137.242188 C 358.964844 143.160156 360.746094 150.972656 366.667969 154.691406 C 372.585938 158.414062 380.398438 156.628906 384.117188 150.710938 Z M 389.355469 142.378906 " fill-opacity="1" fill-rule="nonzero"/></g></g></g></g><g clip-path="url(#52acf4bc17)"><g clip-path="url(#a8e5559746)"><g clip-path="url(#528298fbdf)"><g clip-path="url(#d623315f71)"><path fill="#784719" d="M 377.722656 145.03125 C 378.132812 144.375 379.003906 144.175781 379.660156 144.589844 C 380.316406 145.003906 380.515625 145.871094 380.101562 146.527344 C 379.691406 147.183594 378.820312 147.382812 378.164062 146.96875 C 377.507812 146.558594 377.308594 145.6875 377.722656 145.03125 M 368.195312 139.042969 C 367.785156 139.699219 367.980469 140.570312 368.640625 140.984375 C 369.296875 141.394531 370.164062 141.195312 370.578125 140.542969 C 370.992188 139.886719 370.792969 139.015625 370.136719 138.601562 C 369.480469 138.1875 368.609375 138.386719 368.195312 139.042969 " fill-opacity="1" fill-rule="nonzero"/></g></g></g></g><g clip-path="url(#09779c38c6)"><g clip-path="url(#b44ce15002)"><g clip-path="url(#2081bf4cde)"><g clip-path="url(#d4e1819e13)"><path fill="#ffffff" d="M 357.6875 168.980469 C 354.726562 160.476562 359.21875 153.332031 359.21875 153.332031 L 364.421875 158.265625 L 371.121094 160.816406 C 371.121094 160.816406 366.410156 168.09375 357.6875 168.980469 Z M 357.6875 168.980469 " fill-opacity="1" fill-rule="nonzero"/></g></g></g></g><g clip-path="url(#3cb1eb8b7b)"><g clip-path="url(#361ecfc77e)"><g clip-path="url(#188ce8baec)"><g clip-path="url(#e9202710a0)"><path fill="#d32f2f" d="M 360.984375 161.085938 L 356.851562 165.902344 L 356.9375 170.167969 L 360.820312 168.398438 L 363.367188 162.585938 L 365.304688 162.140625 L 364.421875 158.265625 L 360.542969 159.148438 Z M 360.984375 161.085938 " fill-opacity="1" fill-rule="nonzero"/></g></g></g></g><g clip-path="url(#4b9f33450a)"><g clip-path="url(#f6f923565c)"><g clip-path="url(#c3d3ff8b5c)"><g clip-path="url(#0765157970)"><path fill="#37474f" d="M 336.390625 160.578125 L 349.488281 168.808594 L 359.21875 153.332031 C 359.21875 153.332031 344.632812 147.464844 336.390625 160.578125 Z M 371.121094 160.816406 L 361.394531 176.292969 L 374.492188 184.523438 C 382.703125 171.457031 371.121094 160.816406 371.121094 160.816406 Z M 371.121094 160.816406 " fill-opacity="1" fill-rule="nonzero"/></g></g></g></g><g clip-path="url(#aa93efbb87)"><g clip-path="url(#9315afa149)"><g clip-path="url(#5cf6f65149)"><g clip-path="url(#787df4427a)"><path fill="#ffc107" d="M 371.121094 160.816406 C 371.121094 160.816406 366.410156 168.09375 357.6875 168.980469 C 354.726562 160.476562 359.21875 153.332031 359.21875 153.332031 L 353.90625 161.78125 C 353.765625 164.234375 354.015625 166.992188 355.03125 169.90625 L 355.761719 172.003906 L 357.96875 171.777344 C 361.019531 171.46875 363.632812 170.492188 365.800781 169.28125 Z M 371.121094 160.816406 " fill-opacity="1" fill-rule="nonzero"/></g></g></g></g><g clip-path="url(#0a8555bfb4)"><g clip-path="url(#39777c545b)"><g clip-path="url(#6cddf83587)"><g clip-path="url(#50e8d1ae3c)"><path fill="#455a64" d="M 380.410156 143.398438 C 378.859375 142.425781 376.921875 142.601562 375.558594 143.671875 L 372.738281 141.898438 C 373.113281 140.207031 372.433594 138.386719 370.882812 137.410156 C 368.914062 136.171875 366.304688 136.769531 365.066406 138.738281 C 363.828125 140.707031 364.421875 143.316406 366.394531 144.554688 C 368.363281 145.792969 370.972656 145.195312 372.210938 143.226562 L 374.589844 144.722656 C 373.351562 146.695312 373.949219 149.304688 375.917969 150.542969 C 377.886719 151.777344 380.496094 151.183594 381.734375 149.214844 C 382.972656 147.246094 382.378906 144.636719 380.410156 143.398438 Z M 367.140625 143.363281 C 365.828125 142.539062 365.433594 140.796875 366.257812 139.488281 C 367.082031 138.175781 368.820312 137.777344 370.136719 138.601562 C 371.449219 139.429688 371.84375 141.167969 371.019531 142.480469 C 370.195312 143.792969 368.457031 144.191406 367.140625 143.363281 Z M 376.667969 149.351562 C 375.351562 148.523438 374.957031 146.785156 375.78125 145.472656 C 376.609375 144.160156 378.347656 143.761719 379.660156 144.589844 C 380.976562 145.414062 381.371094 147.15625 380.546875 148.46875 C 379.71875 149.777344 377.980469 150.175781 376.667969 149.351562 Z M 376.667969 149.351562 " fill-opacity="1" fill-rule="nonzero"/></g></g></g></g><g clip-path="url(#e3b4203510)"><g clip-path="url(#8521f827a2)"><g clip-path="url(#236097fab3)"><g clip-path="url(#2765786d85)"><path fill="#f57f17" d="M 371.632812 136.222656 L 370.441406 135.472656 L 373.292969 130.9375 L 374.925781 133.625 L 376.566406 131.015625 L 377.753906 131.765625 L 374.90625 136.300781 L 373.273438 133.613281 Z M 371.632812 136.222656 " fill-opacity="1" fill-rule="nonzero"/></g></g></g></g><g clip-path="url(#18fa27b288)"><g clip-path="url(#25d41476e5)"><g clip-path="url(#52f0ae7e3f)"><g clip-path="url(#0a8adbb777)"><path fill="#424242" d="M 385.375 124.925781 C 392.609375 129.472656 393.59375 138.277344 389.050781 145.507812 L 387.339844 148.226562 L 383.675781 148.773438 L 387.417969 142.820312 L 376.121094 129.078125 L 368.367188 130.847656 L 364.625 136.800781 L 363.546875 133.230469 L 365.238281 130.539062 C 368.25 125.75 372.472656 121.773438 379.117188 124.316406 L 381.804688 122.683594 Z M 385.375 124.925781 " fill-opacity="1" fill-rule="nonzero"/></g></g></g></g><g fill="#ff5757" fill-opacity="1"><g transform="translate(153.305353, 42.333832)"><g><path d="M 1.023438 -19.023438 L 0.390625 -20.878906 L -5.074219 -19.023438 L 1.238281 -0.421875 L 6.980469 -2.367188 L 3.410156 -12.890625 C 2.710938 -14.953125 4.066406 -16.488281 5.410156 -16.945312 C 6.679688 -17.375 8.0625 -16.925781 8.832031 -14.65625 L 12.378906 -4.199219 L 17.847656 -6.054688 L 14.253906 -16.648438 C 13.597656 -18.6875 15.210938 -20.269531 16.550781 -20.726562 C 17.824219 -21.15625 19.203125 -20.707031 19.972656 -18.4375 L 23.523438 -7.980469 L 28.988281 -9.835938 L 25.429688 -20.324219 C 23.433594 -26.4375 19.636719 -27.679688 15.957031 -26.429688 C 13.859375 -25.71875 11.652344 -24.085938 11.007812 -22.027344 C 9.625 -23.167969 7.863281 -23.722656 5.628906 -22.964844 C 3.667969 -22.296875 1.746094 -21.070312 1.023438 -19.023438 Z M 1.023438 -19.023438 "/></g></g></g><g fill="#ff5757" fill-opacity="1"><g transform="translate(183.218431, 32.422947)"><g><path d="M 18.542969 -13.605469 C 17.28125 -20.203125 11.660156 -22.53125 6.703125 -21.582031 C 1.671875 -20.617188 -2.65625 -16.386719 -1.394531 -9.789062 C -0.128906 -3.191406 5.460938 -0.824219 10.457031 -1.78125 C 14.449219 -2.542969 18.007812 -5.40625 18.664062 -9.894531 L 12.5625 -8.726562 C 11.914062 -7.679688 10.820312 -7.027344 9.570312 -6.785156 C 7.851562 -6.496094 5.933594 -7.050781 4.914062 -8.707031 L 18.753906 -11.355469 C 18.757812 -12.09375 18.695312 -12.820312 18.542969 -13.605469 Z M 11.992188 -14.609375 L 4.289062 -13.132812 C 4.496094 -15.132812 5.855469 -16.355469 7.53125 -16.675781 C 9.347656 -17.023438 11.089844 -16.429688 11.992188 -14.609375 Z M 11.992188 -14.609375 "/></g></g></g><g fill="#ff5757" fill-opacity="1"><g transform="translate(204.358274, 27.911509)"><g><path d="M 6.167969 -18.023438 L 6.066406 -19.980469 L 0.300781 -19.6875 L 1.304688 -0.0664062 L 7.363281 -0.375 L 6.792969 -11.472656 C 6.683594 -13.652344 8.40625 -14.757812 9.824219 -14.828125 C 11.164062 -14.898438 12.371094 -14.085938 12.492188 -11.691406 L 13.054688 -0.667969 L 18.824219 -0.964844 L 18.25 -12.132812 C 18.175781 -14.273438 20.160156 -15.359375 21.574219 -15.429688 C 22.914062 -15.5 24.121094 -14.6875 24.242188 -12.292969 L 24.804688 -1.269531 L 30.574219 -1.566406 L 30.007812 -12.625 C 29.75 -19.046875 26.4375 -21.277344 22.554688 -21.082031 C 20.34375 -20.96875 17.777344 -20 16.59375 -18.195312 C 15.574219 -19.667969 14.03125 -20.679688 11.675781 -20.558594 C 9.605469 -20.453125 7.421875 -19.796875 6.167969 -18.023438 Z M 6.167969 -18.023438 "/></g></g></g><g fill="#ff5757" fill-opacity="1"><g transform="translate(235.847014, 26.536096)"><g><path d="M 21.863281 -7.949219 C 22.46875 -14.933594 17.558594 -18.855469 12.347656 -19.308594 C 7.101562 -19.761719 1.59375 -16.738281 0.988281 -9.757812 C 0.390625 -2.808594 5.335938 1.117188 10.542969 1.566406 C 15.753906 2.019531 21.265625 -1.003906 21.863281 -7.949219 Z M 6.707031 -9.261719 C 6.992188 -12.589844 9.488281 -14.050781 11.878906 -13.84375 C 14.480469 -13.621094 16.4375 -11.773438 16.148438 -8.445312 C 15.863281 -5.152344 13.371094 -3.726562 11.019531 -3.929688 C 8.632812 -4.136719 6.421875 -5.96875 6.707031 -9.261719 Z M 6.707031 -9.261719 "/></g></g></g><g fill="#ff5757" fill-opacity="1"><g transform="translate(257.60209, 28.553594)"><g><path d="M 9.625 -16.894531 L 9.640625 -18.222656 L 4.566406 -19.136719 L 1.070312 0.195312 L 6.683594 1.207031 L 8.621094 -9.511719 C 9.09375 -12.121094 11.359375 -12.816406 13.402344 -12.484375 C 14.046875 -12.367188 14.707031 -12.140625 15.246094 -11.855469 L 16.273438 -17.132812 C 15.554688 -17.445312 14.824219 -17.691406 14.144531 -17.8125 C 12.570312 -18.097656 11.089844 -17.847656 9.625 -16.894531 Z M 9.625 -16.894531 "/></g></g></g><g fill="#ff5757" fill-opacity="1"><g transform="translate(271.240519, 30.837986)"><g><path d="M 23.605469 -12.980469 L 23.84375 -13.859375 L 18.132812 -15.417969 L 14.132812 -9.996094 L 11.421875 -5.578125 L 11.398438 -10.742188 L 10.707031 -17.441406 L 4.960938 -19.011719 L 4.722656 -18.132812 L 6.515625 0.121094 L 2.363281 5.6875 L 2.132812 6.53125 L 7.84375 8.085938 C 13.078125 1.046875 18.335938 -5.949219 23.605469 -12.980469 Z M 23.605469 -12.980469 "/></g></g></g></svg>