<svg xmlns="http://www.w3.org/2000/svg" xmlns:xlink="http://www.w3.org/1999/xlink" width="600" zoomAndPan="magnify" viewBox="0 0 450 299.999988" height="400" preserveAspectRatio="xMidYMid meet" version="1.0"><defs><clipPath id="2fc6f938c3"><path d="M 68.621094 44 L 374 44 L 374 201 L 68.621094 201 Z M 68.621094 44 " clip-rule="nonzero"/></clipPath></defs><path fill="#fbc036" d="M 339.769531 120.90625 C 339.832031 120.671875 339.871094 120.539062 339.871094 120.539062 C 343.855469 105.808594 342.367188 95.597656 340.417969 89.613281 C 340.316406 89.207031 340.222656 88.792969 340.113281 88.386719 C 339.589844 86.449219 338.597656 84.714844 337.371094 83.183594 C 337.367188 83.171875 337.351562 83.160156 337.351562 83.160156 C 336.730469 82.375 336.039062 81.640625 335.320312 80.964844 C 332.886719 78.683594 329.605469 77.867188 326.300781 78.347656 C 323.28125 78.78125 320.4375 79.945312 318.15625 82.152344 C 317.003906 83.265625 315.734375 84.269531 314.660156 85.441406 C 313.574219 86.621094 312.542969 87.886719 311.6875 89.238281 C 310.304688 91.429688 309.042969 93.707031 307.800781 95.988281 C 306.667969 98.066406 305.640625 100.199219 304.539062 102.296875 C 303.574219 104.125 302.570312 105.9375 301.582031 107.757812 C 301.5 107.894531 301.410156 108.027344 301.328125 108.160156 C 301.273438 108.140625 301.230469 108.117188 301.179688 108.097656 C 307.507812 94.324219 312.328125 78.722656 314.371094 71.65625 C 314.746094 70.425781 315.097656 69.1875 315.417969 67.9375 C 315.4375 67.871094 315.449219 67.816406 315.449219 67.816406 C 319.082031 56.59375 319.183594 33.976562 319.183594 33.976562 C 318.03125 15.179688 312.109375 7.949219 308.558594 5.277344 C 308.347656 5.066406 308.144531 4.84375 307.929688 4.644531 C 307.476562 4.4375 307.03125 4.246094 306.585938 4.074219 C 306.125 3.863281 305.859375 3.792969 305.859375 3.792969 C 295.328125 0 288.011719 5.953125 285.699219 8.253906 C 284.789062 9.242188 283.890625 10.234375 282.996094 11.234375 C 279.019531 16.941406 275.515625 29.808594 273.328125 39.324219 C 272.808594 42.113281 272.289062 44.90625 271.742188 47.691406 C 271.539062 48.722656 271.21875 49.730469 270.957031 50.746094 C 270.558594 50.449219 270.4375 50.214844 270.398438 49.964844 C 269.792969 46.402344 269.277344 42.820312 268.574219 39.273438 C 267.59375 34.277344 266.683594 29.253906 265.371094 24.347656 C 264.273438 20.230469 262.6875 16.269531 260.296875 12.632812 C 258.160156 9.386719 255.375 6.894531 252.09375 5.066406 C 248.371094 2.996094 244.203125 2.390625 239.964844 2.957031 C 234.65625 3.671875 229.355469 9.011719 228.605469 14.480469 C 228.257812 16.996094 228.03125 19.527344 227.824219 22.0625 C 227.820312 22.878906 227.578125 69.5 215.570312 93.457031 C 209.929688 81.640625 201.296875 74.363281 196.453125 70.972656 C 196.375 70.914062 196.292969 70.863281 196.214844 70.8125 C 195.675781 70.4375 195.175781 70.105469 194.742188 69.832031 L 194.75 69.824219 C 194.75 69.824219 194.609375 69.738281 194.386719 69.609375 C 194.355469 69.589844 194.324219 69.570312 194.296875 69.550781 C 194.183594 69.476562 194.066406 69.398438 193.945312 69.328125 C 193.890625 69.289062 193.824219 69.265625 193.761719 69.226562 C 193.167969 68.875 192.832031 68.699219 192.832031 68.699219 L 192.839844 68.71875 C 191.085938 67.765625 189.257812 66.976562 187.390625 66.28125 C 185.425781 65.503906 183.105469 64.707031 180.511719 63.996094 C 178.371094 63.363281 176.21875 62.886719 174.050781 62.574219 C 172.195312 62.265625 170.253906 62.03125 168.21875 61.898438 C 165.566406 61.71875 162.910156 61.867188 160.285156 62.261719 C 159.285156 62.414062 158.148438 62.609375 156.917969 62.871094 C 155.492188 63.078125 154.082031 63.382812 152.707031 63.890625 C 152.542969 63.957031 152.375 64.007812 152.210938 64.070312 C 150.292969 64.636719 148.269531 65.351562 146.21875 66.238281 C 144.996094 66.710938 143.785156 67.210938 142.625 67.8125 C 140.445312 68.933594 138.445312 70.347656 136.589844 71.949219 C 134.066406 73.988281 131.753906 76.441406 129.835938 79.371094 C 129.730469 79.519531 129.628906 79.660156 129.535156 79.804688 C 129.515625 79.839844 129.488281 79.871094 129.472656 79.902344 C 129.472656 79.902344 128.484375 81.171875 127.445312 83.265625 C 127.429688 83.292969 127.417969 83.3125 127.40625 83.335938 C 126.425781 85.117188 125.679688 87.078125 125.429688 89.085938 C 124.871094 91.851562 124.78125 95.027344 125.859375 98.328125 C 125.859375 98.328125 128.808594 106.675781 137.277344 108.328125 C 141.472656 109.28125 145.753906 108.539062 149.980469 107.148438 C 154.253906 105.738281 158.476562 104.292969 162.953125 103.515625 C 164.523438 103.242188 166.066406 103.164062 167.59375 103.195312 L 167.601562 103.183594 C 187.078125 102.0625 194.074219 121.769531 194.074219 121.769531 C 194.074219 121.769531 194.085938 121.792969 194.101562 121.839844 C 194.386719 122.476562 194.660156 123.132812 194.898438 123.800781 C 195.386719 125.195312 195.6875 126.597656 195.839844 128.007812 C 196.839844 133.277344 197.113281 140.933594 192.578125 147.132812 C 188.03125 153.335938 182.871094 155.46875 179.371094 156.183594 C 179.539062 156.171875 179.679688 156.160156 179.832031 156.152344 C 180.21875 156.121094 180.59375 156.09375 180.953125 156.070312 C 180.628906 156.09375 180.25 156.121094 179.832031 156.152344 C 179.679688 156.164062 179.523438 156.175781 179.371094 156.183594 C 176.910156 156.6875 175.269531 156.496094 175.269531 156.496094 C 157.734375 157.820312 150.292969 135.886719 150.226562 135.6875 C 149.84375 134.917969 149.46875 134.140625 149.105469 133.355469 C 147.460938 129.835938 145.90625 126.28125 144.210938 122.792969 C 144.046875 122.457031 143.867188 122.125 143.675781 121.800781 C 140.65625 115.394531 135.925781 112.488281 133.027344 111.246094 C 132.351562 110.90625 131.644531 110.664062 130.917969 110.492188 C 130.65625 110.421875 130.503906 110.390625 130.503906 110.390625 C 130.476562 110.386719 130.453125 110.386719 130.425781 110.378906 C 130.414062 110.378906 130.394531 110.371094 130.382812 110.367188 C 126.289062 109.339844 123.046875 109.710938 120.605469 110.539062 C 119.058594 110.902344 117.726562 111.699219 116.546875 112.691406 C 115.53125 113.484375 115.03125 114.121094 115.03125 114.121094 C 113.621094 115.394531 112.488281 116.875 111.570312 118.453125 C 111.121094 119.179688 110.734375 119.9375 110.410156 120.734375 C 107.191406 128.070312 107.828125 136.386719 107.828125 136.386719 C 107.847656 136.898438 107.871094 137.402344 107.90625 137.910156 C 107.917969 138.160156 107.941406 138.414062 107.957031 138.664062 C 107.96875 138.816406 107.976562 138.976562 107.992188 139.128906 C 108.0625 139.964844 108.148438 140.792969 108.261719 141.621094 C 109.84375 153.859375 114.992188 164.839844 114.992188 164.839844 L 114.996094 164.832031 C 115.710938 166.507812 116.457031 168.171875 117.246094 169.816406 C 119.222656 173.941406 121.339844 178.023438 123.761719 181.898438 C 126.203125 185.808594 128.988281 189.515625 131.828125 193.148438 C 133.703125 195.539062 135.851562 197.738281 138.042969 199.855469 C 141.152344 202.863281 144.25 205.914062 147.648438 208.574219 C 151.605469 211.667969 155.785156 214.511719 160.050781 217.183594 C 163.089844 219.082031 166.328125 220.65625 169.527344 222.300781 C 201.925781 240.355469 237.367188 233.671875 237.367188 233.671875 C 237.386719 233.664062 237.40625 233.664062 237.425781 233.65625 C 239.617188 233.3125 241.789062 232.859375 243.929688 232.203125 C 244.203125 232.121094 244.480469 232.050781 244.746094 231.96875 C 245.96875 231.648438 247.160156 231.3125 248.339844 230.960938 C 250.65625 230.335938 252.96875 229.710938 255.199219 228.871094 C 256.511719 228.378906 257.785156 227.800781 259.054688 227.195312 C 266.375 224.199219 272.476562 220.789062 277.390625 217.527344 C 278.636719 216.75 279.867188 215.945312 281.054688 215.085938 C 281.703125 214.613281 282.316406 214.097656 282.921875 213.570312 C 289.855469 208.210938 293.195312 204.015625 293.195312 204.015625 C 293.761719 203.449219 294.296875 202.855469 294.832031 202.257812 C 312.734375 182.78125 319.277344 168.765625 319.277344 168.765625 C 326.632812 157.746094 332.25 143.8125 335.742188 133.769531 C 335.917969 133.328125 336.105469 132.894531 336.269531 132.457031 C 337.21875 130.003906 337.894531 127.441406 338.621094 124.910156 C 339.148438 123.164062 339.511719 121.882812 339.703125 121.195312 C 339.730469 121.054688 339.75 120.976562 339.769531 120.90625 Z M 339.769531 120.90625 " fill-opacity="1" fill-rule="nonzero"/><path fill="#ff914d" d="M 379.066406 163.78125 C 378.894531 163.820312 378.425781 163.925781 377.804688 164.0625 C 377.234375 164.1875 376.660156 164.316406 376.09375 164.445312 C 375.054688 164.679688 373.871094 164.941406 372.671875 165.214844 C 372.054688 165.355469 371.4375 165.496094 370.816406 165.628906 C 369.84375 165.847656 368.925781 166.054688 368.179688 166.222656 C 368.136719 166.226562 368.097656 166.242188 368.050781 166.246094 C 367 166.484375 366.304688 166.640625 366.304688 166.640625 C 366.304688 166.640625 363.132812 178.445312 362.578125 178.890625 C 362.023438 179.339844 360.875 177.605469 356.402344 168.203125 C 356.402344 168.203125 347.484375 169.402344 344.375 168.515625 C 344.375 168.515625 342.089844 168.058594 346.484375 164.851562 C 350.882812 161.644531 353.113281 159.777344 353.113281 159.777344 C 353.113281 159.777344 348.644531 150.8125 349.597656 150.199219 C 349.953125 149.96875 350.234375 149.894531 350.996094 150.066406 C 351.285156 150.027344 351.585938 150.085938 351.890625 150.1875 C 353.847656 150.832031 355.804688 151.492188 357.753906 152.144531 C 358.796875 152.46875 359.976562 152.839844 361.339844 153.253906 L 367.441406 148.007812 C 367.441406 148.007812 368.796875 146.59375 369.351562 146.816406 C 369.898438 147.03125 368.210938 155.851562 368.703125 156.609375 C 368.722656 156.636719 368.742188 156.660156 368.757812 156.6875 C 369.523438 157.300781 378.515625 161.972656 379.066406 162.246094 C 379.621094 162.519531 380.160156 163.53125 379.066406 163.78125 Z M 380.722656 124.558594 C 380.433594 124.214844 372.824219 120.933594 372.824219 120.933594 L 372.851562 118.121094 C 372.851562 111.214844 372.296875 110.632812 371.722656 110.976562 C 371.148438 111.324219 365.527344 117.847656 365.527344 117.847656 C 365.527344 117.847656 364.050781 117.28125 362.265625 116.636719 C 361.488281 116.3125 360.683594 116 359.824219 115.789062 C 358.007812 115.183594 356.394531 114.71875 356.171875 114.902344 C 355.625 115.34375 360.679688 123.304688 360.679688 123.304688 C 359.109375 125.316406 357.535156 127.320312 355.980469 129.339844 C 355.546875 129.902344 355.078125 130.441406 354.664062 131.046875 C 354.171875 131.683594 353.777344 132.1875 353.566406 132.46875 C 352.449219 133.921875 353.566406 134.152344 353.566406 134.152344 C 354.101562 134.152344 354.636719 134.132812 355.160156 134.09375 L 355.179688 134.09375 C 358.703125 133.839844 362.035156 132.769531 365.394531 131.863281 C 365.414062 131.894531 370.542969 140.894531 371.804688 140.015625 C 371.804688 140.015625 372.304688 140.519531 372.457031 138.070312 C 372.46875 138.066406 372.492188 138.050781 372.507812 138.046875 C 372.507812 137.515625 372.507812 137 372.5 136.484375 C 372.5 136.464844 372.5 136.453125 372.5 136.433594 L 372.5 136.425781 C 372.492188 135.203125 372.492188 134.003906 372.5 132.820312 L 372.46875 128.742188 L 373.367188 128.328125 L 373.375 128.320312 C 373.78125 128.101562 374.203125 127.894531 374.621094 127.695312 L 374.679688 127.667969 C 374.75 127.636719 374.820312 127.605469 374.882812 127.574219 C 378.695312 126.113281 381.007812 124.902344 380.722656 124.558594 Z M 176.875 26.632812 C 176.875 26.632812 177.652344 16.296875 176.152344 16.546875 C 174.65625 16.792969 168.628906 23.785156 168.628906 23.785156 C 168.628906 23.785156 160.890625 21.113281 157.421875 20.585938 C 157.320312 20.554688 157.226562 20.527344 157.117188 20.496094 C 157.117188 20.515625 157.125 20.527344 157.125 20.546875 C 156.480469 20.472656 156.003906 20.476562 155.835938 20.625 C 154.886719 21.492188 161.621094 30.546875 161.621094 30.546875 C 161.328125 31.644531 160.125 32.050781 156.078125 36.347656 C 156.054688 36.378906 156.035156 36.402344 156.007812 36.4375 C 154.523438 38.046875 153.171875 39.769531 152.210938 41.859375 C 152.230469 41.871094 152.25 41.886719 152.265625 41.898438 C 151.796875 42.9375 151.910156 43.351562 152.210938 43.433594 C 152.820312 43.601562 166.734375 39.800781 166.734375 39.800781 L 170.617188 46.078125 C 170.617188 46.078125 170.660156 46.144531 170.71875 46.238281 C 171.4375 47.4375 172.214844 48.589844 173.105469 49.667969 C 174.109375 50.933594 175.132812 51.957031 175.574219 51.507812 C 176.574219 50.507812 175.9375 36.335938 175.9375 36.335938 L 179.074219 34.863281 C 182.214844 33.492188 184.105469 32.585938 185.246094 31.960938 C 185.566406 31.816406 185.886719 31.664062 186.203125 31.515625 C 186.191406 31.476562 186.183594 31.453125 186.171875 31.414062 C 187.222656 30.707031 186.785156 30.546875 186.648438 30.28125 C 186.386719 29.78125 176.875 26.632812 176.875 26.632812 Z M 176.875 26.632812 " fill-opacity="1" fill-rule="nonzero"/><path fill="#8c52ff" d="M 122.78125 234.191406 C 116.917969 242.027344 110.914062 249.941406 104.789062 257.914062 C 102.992188 256.417969 101.441406 255.117188 99.726562 253.6875 C 101.4375 251.464844 103.085938 249.324219 105.003906 246.824219 C 104.980469 246.832031 104.953125 246.832031 104.933594 246.832031 C 104.929688 246.804688 104.921875 246.78125 104.902344 246.765625 C 104.882812 246.753906 104.84375 246.761719 104.820312 246.761719 C 104.808594 246.785156 104.789062 246.8125 104.777344 246.84375 C 104.792969 246.84375 104.8125 246.84375 104.832031 246.84375 C 103.566406 247.003906 102.640625 247.105469 101.722656 247.246094 C 96.6875 248.035156 92.09375 246.933594 88.1875 243.695312 C 86.070312 241.941406 84.796875 239.457031 83.941406 236.839844 C 81.410156 229.050781 83.75 222.027344 87.867188 215.5625 C 92.722656 207.929688 99.773438 203.085938 108.667969 201.160156 C 113.664062 200.078125 118.597656 200.382812 123.296875 202.644531 C 127.175781 204.519531 130.179688 207.347656 131.613281 211.421875 C 133.332031 216.316406 133.136719 221.183594 130.269531 225.722656 C 130.171875 225.871094 130.070312 226.015625 129.949219 226.148438 C 129.890625 226.214844 129.800781 226.238281 129.433594 226.457031 C 127.414062 224.773438 125.359375 223.058594 123.289062 221.332031 C 124.269531 218.960938 124.613281 216.628906 123.765625 214.351562 C 122.332031 210.527344 119.375 208.589844 115.378906 208.242188 C 108.101562 207.605469 102.269531 210.402344 97.574219 215.851562 C 94.558594 219.335938 92.011719 223.078125 91.066406 227.691406 C 90.144531 232.203125 92.449219 238.34375 98.007812 239.679688 C 100.097656 240.183594 102.117188 240.132812 104.117188 239.40625 C 106.625 238.488281 109.027344 237.386719 110.726562 235.195312 C 110.886719 234.988281 111.085938 234.8125 111.230469 234.59375 C 111.351562 234.417969 111.429688 234.210938 111.621094 233.828125 C 107.808594 230.382812 103.992188 226.925781 100.105469 223.410156 C 101.621094 221.59375 103.113281 219.820312 104.65625 217.972656 C 108.152344 220.230469 110.898438 223.109375 113.792969 225.824219 C 116.667969 228.539062 119.578125 231.222656 122.78125 234.191406 Z M 104.941406 246.855469 C 104.941406 246.851562 104.933594 246.84375 104.933594 246.835938 C 104.898438 246.84375 104.863281 246.84375 104.828125 246.851562 C 104.863281 246.851562 104.902344 246.855469 104.941406 246.855469 Z M 159.597656 250.292969 C 157.914062 255.589844 155.605469 260.558594 151.695312 264.523438 C 146.644531 269.648438 140.820312 273.613281 133.261719 273.542969 C 128.503906 273.496094 124.628906 271.246094 121.90625 267.300781 C 118.644531 262.574219 118.03125 257.214844 118.96875 251.738281 C 119.648438 247.722656 121.378906 244.050781 123.644531 240.589844 C 126.15625 236.761719 129.285156 233.644531 132.917969 230.929688 C 136.25 228.4375 140.03125 227.515625 144.472656 227.367188 C 149.722656 227.84375 154.613281 229.71875 157.613281 234.882812 C 160.417969 239.71875 161.335938 244.8125 159.597656 250.292969 Z M 144.949219 234.652344 C 141.40625 234.015625 138.308594 235.316406 135.5625 237.308594 C 132.53125 239.507812 130.320312 242.460938 128.628906 245.832031 C 126.984375 249.113281 125.792969 252.484375 125.753906 257.058594 C 125.589844 258.609375 126.34375 260.757812 127.679688 262.707031 C 129.542969 265.414062 132.742188 266.953125 135.925781 266.296875 C 139.917969 265.480469 143.378906 263.613281 146.179688 260.679688 C 150.242188 256.449219 152.796875 251.445312 153.273438 245.523438 C 153.71875 239.980469 150.375 235.628906 144.949219 234.652344 Z M 194.964844 258.859375 C 195.082031 260.085938 195.203125 261.316406 195.277344 262.089844 C 195.050781 266.894531 194.839844 271.246094 193.183594 275.320312 C 191.429688 279.617188 189.007812 283.421875 185.195312 286.292969 C 182.308594 288.472656 179.136719 289.863281 175.605469 289.792969 C 169.742188 289.671875 164.765625 287.511719 161.363281 282.417969 C 157.730469 276.976562 157.601562 271.105469 158.984375 264.96875 C 159.953125 260.675781 161.203125 256.507812 163.476562 252.71875 C 165.59375 249.195312 168.226562 246.226562 172.121094 244.449219 C 175.078125 243.097656 178.085938 242.546875 181.226562 242.980469 C 184.042969 243.375 186.675781 244.382812 188.875 246.328125 C 192.640625 249.671875 194.515625 253.917969 194.964844 258.859375 Z M 186.160156 253.695312 C 181.71875 248.304688 174.726562 248.03125 170.183594 253.988281 C 167.746094 257.179688 166.433594 260.890625 165.6875 264.753906 C 164.996094 268.339844 164.40625 272.050781 165.910156 275.574219 C 166.707031 277.449219 167.695312 279.4375 169.136719 280.800781 C 173.132812 284.585938 180.753906 283.648438 184.316406 278.285156 C 187.464844 273.535156 188.511719 268.246094 188.621094 262.6875 C 188.765625 259.40625 188.339844 256.339844 186.160156 253.695312 Z M 131.703125 63.078125 C 130.917969 61.503906 130.335938 60.253906 129.6875 59.042969 C 127.292969 54.566406 124.882812 50.09375 122.441406 45.640625 C 122.039062 44.898438 121.464844 44.257812 121.015625 43.632812 C 118.515625 45.054688 116.277344 46.332031 114.027344 47.613281 C 117.488281 54.167969 120.847656 60.519531 124.367188 67.175781 C 126.980469 65.714844 129.292969 64.421875 131.703125 63.078125 Z M 225.195312 261.34375 Z M 234.207031 270.234375 L 234.210938 270.234375 C 233.746094 276.433594 231.332031 280.898438 229.414062 283.542969 C 229.398438 283.566406 229.386719 283.59375 229.367188 283.617188 C 228.789062 284.496094 228.113281 285.261719 227.378906 285.964844 C 227.289062 286.050781 227.214844 286.128906 227.152344 286.1875 C 227.125 286.210938 227.097656 286.238281 227.074219 286.257812 C 226.996094 286.328125 226.941406 286.378906 226.941406 286.378906 C 224.1875 288.824219 221.554688 290.304688 219.96875 291.074219 C 219.917969 291.101562 219.859375 291.125 219.808594 291.152344 C 219.179688 291.449219 218.738281 291.628906 218.554688 291.699219 C 216.679688 292.4375 214.710938 292.929688 212.691406 293.195312 C 208.203125 293.988281 204.355469 293.917969 202.109375 293.75 C 201.875 293.757812 201.644531 293.765625 201.410156 293.769531 C 201.066406 293.785156 200.722656 293.648438 200.027344 293.523438 C 199.847656 277.542969 199.671875 261.558594 199.496094 245.53125 C 204.753906 244.378906 209.816406 244.664062 214.75 245.746094 C 221.167969 247.15625 226.390625 250.496094 230.210938 256.109375 C 232.582031 259.597656 233.914062 263.324219 234.300781 267.371094 C 234.398438 268.308594 234.332031 269.273438 234.207031 270.234375 Z M 225.59375 262.324219 C 225.472656 261.988281 225.339844 261.65625 225.195312 261.335938 C 220.625 251.28125 206.609375 252.769531 206.609375 252.769531 C 206.609375 263.980469 206.609375 275 206.609375 286.292969 C 206.609375 286.292969 216.449219 288.367188 224.511719 277.855469 C 227.601562 273.0625 227.5 267.703125 225.59375 262.324219 Z M 278.410156 233.207031 C 268.734375 236.933594 259.035156 240.46875 249.410156 244.492188 C 250.488281 246.902344 251.570312 249.328125 252.707031 251.859375 C 256.582031 250.273438 260.316406 248.742188 264 247.234375 C 264.382812 247.730469 264.664062 247.976562 264.796875 248.296875 C 267.121094 253.789062 269.570312 259.234375 271.683594 264.804688 C 273.042969 268.371094 273.488281 272.160156 272.339844 275.957031 C 271.621094 278.335938 269.894531 279.691406 267.988281 279.929688 C 263.191406 280.839844 260.167969 275.410156 260.167969 275.410156 C 258.582031 276.039062 256.554688 276.847656 254.324219 277.742188 C 254.585938 278.4375 254.667969 278.933594 254.925781 279.316406 C 255.875 280.742188 256.722656 282.285156 257.894531 283.507812 C 259.613281 285.308594 261.648438 286.722656 264.179688 287.261719 C 267.421875 287.957031 270.519531 287.378906 273.476562 286.085938 C 278.945312 283.6875 281.449219 278.164062 280.824219 272.261719 C 280.230469 266.652344 278.429688 261.351562 276.292969 256.15625 C 274.6875 252.25 273.121094 248.328125 271.5 244.320312 C 274.777344 242.980469 278.015625 241.664062 281.367188 240.296875 C 280.351562 237.863281 279.449219 235.703125 278.410156 233.207031 Z M 353.140625 230.34375 C 352.175781 232.339844 351.023438 234.1875 349.753906 235.933594 L 349.78125 235.925781 C 349.710938 236.015625 349.640625 236.105469 349.570312 236.195312 C 348.742188 237.324219 347.855469 238.414062 346.933594 239.464844 C 345.230469 241.484375 343.675781 243.1875 342.394531 244.519531 L 342.351562 244.5625 C 341.992188 244.933594 341.660156 245.277344 341.347656 245.582031 L 338.601562 248.394531 L 336.488281 246.25 C 333.082031 242.664062 329.726562 239.035156 326.402344 235.371094 C 324.625 233.410156 322.878906 231.425781 321.128906 229.445312 L 321.128906 229.453125 L 310 217.777344 C 309.292969 217.125 308.585938 216.46875 307.898438 215.800781 C 306.902344 214.832031 306.046875 213.714844 305.054688 212.582031 C 307.222656 209.554688 309.527344 206.910156 312.171875 204.632812 L 312.121094 204.640625 C 312.121094 204.640625 319.625 197.09375 326.179688 197.457031 C 326.179688 197.457031 326.214844 197.464844 326.230469 197.464844 C 327.027344 197.515625 327.8125 197.679688 328.566406 197.992188 C 331.222656 198.878906 335.15625 201.238281 335.242188 207.386719 C 335.25 207.46875 335.257812 207.550781 335.257812 207.636719 C 335.257812 207.640625 335.257812 207.648438 335.257812 207.65625 C 335.300781 209.625 334.835938 210.613281 334.835938 210.613281 C 334.835938 210.613281 340.394531 206.539062 346.761719 209.515625 L 346.761719 209.523438 C 347.46875 209.800781 348.179688 210.152344 348.882812 210.617188 L 348.855469 210.632812 C 353.011719 213 355.394531 216.773438 355.441406 221.726562 C 355.472656 224.691406 354.464844 227.597656 353.140625 230.34375 Z M 327.054688 215.179688 C 328.367188 213.328125 329.132812 211.253906 329.101562 208.882812 C 329.0625 205.660156 326.359375 203.449219 323.242188 204.238281 C 319.09375 205.289062 316.289062 208.03125 313.976562 211.433594 C 316.894531 214.488281 319.695312 217.414062 322.746094 220.605469 C 324.269531 218.699219 325.761719 217.011719 327.054688 215.179688 Z M 343.472656 216.011719 C 342.230469 215.75 340.828125 215.8125 339.578125 216.09375 C 335.523438 217.003906 332.75 219.800781 330.203125 222.847656 C 329.285156 223.9375 328.515625 225.148438 327.679688 226.304688 C 331.523438 230.367188 335.191406 234.257812 338.90625 238.1875 C 342.695312 235.125 347.261719 228.847656 347.644531 223.601562 C 347.902344 220.089844 346.898438 216.722656 343.472656 216.011719 Z M 325.308594 249.738281 C 325.449219 252.011719 325.460938 254.410156 324.90625 256.589844 C 324.027344 260.023438 322.058594 262.9375 319.375 265.363281 C 316.1875 268.246094 312.273438 269.449219 308.234375 269.773438 C 307.609375 269.824219 307 269.832031 306.386719 269.820312 L 306.394531 269.832031 C 305.984375 269.820312 305.589844 269.789062 305.195312 269.738281 C 301.828125 269.40625 298.695312 268.054688 295.949219 265.734375 C 290.207031 260.878906 286.417969 254.777344 284.277344 247.601562 C 283.21875 244.046875 282.992188 240.367188 283.628906 236.792969 C 284.355469 232.734375 286.488281 229.324219 289.886719 226.753906 C 292.78125 224.5625 295.972656 223.390625 300.746094 223.210938 L 300.726562 223.171875 C 300.726562 223.171875 301.058594 223.15625 301.644531 223.1875 C 301.773438 223.1875 301.878906 223.171875 302.007812 223.171875 C 302.96875 223.15625 304.09375 223.390625 305.285156 223.8125 C 308.726562 224.765625 313.5625 227.125 317.808594 232.917969 C 321.753906 237.824219 324.898438 243.242188 325.308594 249.738281 Z M 314.574219 240.121094 C 313.421875 238.253906 311.96875 236.578125 310.3125 235.039062 C 307.65625 232.585938 304.722656 230.800781 300.988281 230.707031 C 297.867188 230.667969 293.519531 232.695312 292.046875 235.046875 C 289.675781 238.839844 289.511719 242.90625 291.046875 247.015625 C 292.523438 250.960938 294.660156 254.515625 297.414062 257.78125 C 300.664062 261.628906 306.652344 263.9375 311.808594 261.558594 C 314.914062 260.132812 317.074219 258.015625 317.839844 255.105469 C 319.796875 247.328125 314.574219 240.121094 314.574219 240.121094 Z M 102.71875 101.890625 C 95 100.890625 87.28125 99.886719 79.40625 98.863281 C 79.058594 101.878906 78.746094 104.65625 78.4375 107.394531 C 78.4375 107.394531 100.339844 109.601562 102.71875 109.703125 C 102.71875 107.117188 102.71875 104.644531 102.71875 101.890625 Z M 112.105469 79.148438 C 109.464844 77.511719 106.839844 75.855469 104.203125 74.210938 C 100.945312 72.175781 96.007812 69.183594 92.78125 67.175781 C 90.042969 71.972656 88.378906 75.019531 88.378906 75.019531 C 94.578125 78.371094 102.441406 82.679688 108.644531 86.03125 C 108.644531 86.03125 110.632812 81.960938 112.105469 79.148438 Z M 112.105469 79.148438 " fill-opacity="1" fill-rule="nonzero"/><g clip-path="url(#2fc6f938c3)"><path fill="#e58c16" d="M 353.03125 45.339844 C 355.007812 45.5 356.988281 45.683594 359.136719 45.875 C 359.136719 47.105469 359.136719 48.238281 359.136719 49.4375 C 355.898438 49.296875 352.71875 49.164062 349.136719 49.011719 C 348.957031 54.019531 348.785156 58.890625 348.609375 63.910156 C 344.132812 64.371094 339.53125 64.847656 334.816406 65.332031 C 334.585938 64.261719 334.375 63.3125 334.101562 62.03125 C 337.5625 61.457031 340.933594 60.902344 344.171875 60.367188 C 344.585938 55.472656 345.039062 50.78125 345.34375 46.085938 C 345.429688 44.863281 346.117188 44.855469 346.894531 44.894531 C 348.9375 44.996094 350.984375 45.175781 353.03125 45.339844 Z M 76.421875 187.414062 L 71.730469 182.007812 C 70.820312 182.875 69.964844 183.683594 68.953125 184.648438 C 73.121094 189.769531 77.296875 194.742188 81.945312 199.445312 C 81.945312 199.445312 83.496094 198.160156 84.507812 197.0625 C 81.863281 193.882812 79.117188 190.617188 76.421875 187.414062 Z M 91.667969 166 C 87.382812 164.203125 83.164062 162.4375 78.886719 160.640625 C 78.519531 161.734375 78.167969 162.78125 77.804688 163.855469 C 80.882812 165.15625 83.707031 166.355469 86.484375 167.527344 C 85.140625 170.464844 83.839844 173.316406 82.535156 176.175781 C 86.402344 177.867188 89.945312 179.40625 93.425781 180.929688 C 93.398438 181 93.335938 181.160156 93.242188 181.371094 C 93.0625 181.8125 92.871094 182.238281 92.660156 182.660156 C 91.398438 185.394531 89.046875 190.332031 89.046875 190.332031 C 90.296875 190.824219 91.359375 191.242188 92.394531 191.644531 C 92.394531 191.644531 98.171875 182.007812 98.792969 179.355469 C 94.980469 177.609375 91.398438 175.972656 87.644531 174.257812 C 89.003906 171.460938 90.28125 168.839844 91.667969 166 Z M 373.890625 72.617188 C 373.964844 75.855469 370.503906 78.75 367.109375 78.632812 C 364.363281 78.542969 361.578125 76.726562 360.785156 74.617188 L 360.785156 74.613281 C 360.609375 74.132812 360.53125 73.636719 360.582031 73.144531 C 360.582031 73.140625 360.582031 73.132812 360.582031 73.128906 C 360.492188 71.417969 360.84375 68.613281 363.539062 66.664062 C 363.65625 66.582031 363.769531 66.5 363.882812 66.421875 C 363.941406 66.382812 363.992188 66.347656 364.050781 66.308594 L 364.054688 66.332031 C 365 65.777344 366.070312 65.5 367.25 65.542969 C 371.640625 65.722656 373.792969 68.378906 373.890625 72.617188 Z M 370.015625 71.132812 C 369.984375 71.074219 369.957031 71.023438 369.925781 70.972656 C 368.96875 68.941406 366.421875 69.566406 366.421875 69.566406 C 364.597656 70.34375 363.832031 71.496094 364.105469 72.921875 C 364.261719 73.707031 365 74.320312 366.089844 74.65625 C 366.304688 74.726562 366.511719 74.777344 366.707031 74.808594 C 366.765625 74.824219 366.828125 74.828125 366.886719 74.839844 C 368.753906 75.070312 369.695312 73.847656 369.695312 73.847656 C 369.785156 73.707031 369.855469 73.585938 369.945312 73.4375 C 370.480469 72.433594 370.289062 71.640625 370.015625 71.132812 Z M 270.085938 50.8125 C 269.761719 53.441406 269.5625 56.089844 269.105469 58.699219 C 268.894531 59.890625 268.570312 61.070312 268.238281 62.242188 C 266.414062 71.625 263.074219 85.585938 258.144531 94.019531 C 256.898438 96.433594 255.582031 98.816406 254.171875 101.144531 C 253.074219 102.949219 251.710938 104.59375 250.621094 106.402344 C 250.238281 107.03125 250.03125 108.035156 250.246094 108.691406 C 250.730469 110.125 252.382812 110.339844 253.445312 109.023438 C 254.667969 107.503906 255.84375 105.949219 257 104.382812 C 259.398438 100.75 263.882812 92.445312 268.363281 76.15625 C 268.371094 76.140625 268.371094 76.128906 268.378906 76.117188 C 268.449219 75.824219 273.285156 55.707031 270.359375 49.601562 C 270.246094 50.085938 270.136719 50.445312 270.085938 50.8125 Z M 301.179688 108.089844 C 296.796875 116.648438 290.34375 124.242188 290.34375 124.242188 L 290.359375 124.210938 C 289.675781 125.09375 288.878906 125.90625 288.167969 126.769531 C 285.414062 130.109375 282.308594 133.0625 278.726562 135.507812 C 277.785156 136.152344 276.71875 136.707031 276.160156 137.828125 L 276.148438 137.835938 C 276.148438 137.835938 275.0625 139.328125 276.394531 139.96875 C 276.726562 140.039062 277.03125 140.066406 277.339844 140.070312 L 277.375 140.078125 C 277.375 140.078125 279.289062 141.023438 286.242188 134.789062 C 289.949219 131.460938 293.832031 125.023438 296.113281 120.886719 C 296.808594 119.695312 297.445312 118.464844 298.050781 117.21875 C 298.109375 117.097656 298.144531 117.03125 298.144531 117.03125 C 298.777344 115.714844 299.382812 114.375 299.996094 113.054688 C 300.714844 111.496094 301.035156 109.742188 301.53125 108.078125 C 301.414062 108.019531 301.308594 107.96875 301.191406 107.914062 L 301.191406 108.089844 Z M 264.164062 169.433594 C 262.679688 169.480469 261.1875 169.722656 259.722656 170 C 255.910156 170.726562 252.054688 171.300781 248.335938 172.347656 C 245.101562 173.25 241.960938 174.566406 238.910156 175.972656 C 235.945312 177.335938 233.058594 178.917969 230.28125 180.632812 C 226.0625 183.230469 221.828125 185.84375 217.863281 188.800781 C 214.914062 191 212.226562 193.613281 210.21875 196.789062 C 209.703125 197.605469 209.355469 198.675781 210.03125 199.535156 C 210.738281 200.441406 211.703125 199.910156 212.542969 199.574219 C 212.863281 199.445312 213.179688 199.261719 213.429688 199.023438 C 215.476562 197.105469 217.417969 195.074219 219.554688 193.269531 C 221.847656 191.328125 224.230469 189.441406 226.742188 187.789062 C 229.242188 186.144531 231.910156 184.753906 234.574219 183.386719 C 237.550781 181.855469 240.539062 180.339844 243.632812 179.0625 C 246.519531 177.871094 249.5 176.871094 252.507812 176.011719 C 254.890625 175.328125 257.371094 174.984375 259.8125 174.480469 C 261.445312 174.148438 263.113281 173.941406 264.679688 173.429688 C 265.9375 173.023438 266.574219 172.332031 266.753906 171.207031 C 266.3125 169.484375 264.164062 169.433594 264.164062 169.433594 Z M 264.164062 169.433594 " fill-opacity="1" fill-rule="nonzero"/></g></svg>